<?xml version="1.0" encoding="UTF-8"?>
<svg id="_圖層_1" data-name="圖層_1" xmlns="http://www.w3.org/2000/svg" viewBox="0 0 108.33 108.33">
  <defs>
    <style>
      .cls-1 {
        fill: #ffdb00;
      }
    </style>
  </defs>
  <circle class="cls-1" cx="54.17" cy="54.17" r="54.17"/>
  <path id="Relaxing_massage_and_spa_icon_4" d="M27.18,66.95c28.5,0,30.13,0,30.2,0,4.28.09,7.19,1.79,7.19,6.02,0,2.49-2.02,4.51-4.51,4.51h-23.36s-.84.09-1.53-.53c-1.24-1.13-.88-3.92,1.53-3.92h20.07c.45,0,.81-.36.81-.81s-.36-.81-.81-.81h-20.07c-2.34,0-3.84,1.73-3.84,3.85,0,2.07,1.47,3.85,3.84,3.85,7.47,0,23.37,0,23.37,0,2.67,0,4.96-1.72,5.79-4.13,1.66,2.41,4.93,4.13,7.81,4.13,4.25,0,8.31-1.42,9.23-5.57.27-1.2.27-2.7-.08-3.97-1.06-3.95-5.08-5.25-9.15-5.25-3.2,0-6.88,2.12-8.3,4.95-.84-1.63-2.34-2.85-4.58-3.48,1.2-1.17,1.7-3.04.49-4.86-8.14-12.18-11.19-16.86-12.75-19.01,3.46.42,7.53-2.43,8.9-5.75,2-4.83,1.64-9.52-3.22-11.53-4.87-2.02-8.44,1.04-10.44,5.87-1.01,2.45-.81,5.74.46,8.16-2.54-.51-5.29.77-6.38,3.4l-6.02,14.62c-1.19,2.77-2.08,5.65-2.15,8.65h-2.5c-.45,0-.81.36-.81.81s.36.81.81.81ZM67.53,68.91c1.42-1.71,3.91-2.98,6.14-2.98,3.43,0,6.91.97,7.65,4.29.21.95.21,2.18-.06,3.19-.85,3.16-4.3,4.06-7.59,4.06-2.42,0-5.18-1.51-6.51-3.48-1.11-1.65-1.07-3.34.37-5.08ZM43.75,65.33l4.27-10.38c7.43,11.12,6.83,10.22,6.94,10.38-1.85,0,.76,0-11.21,0ZM45.27,31.12c.91-2.2,2.48-4.68,4.78-5.33,1.2-.34,2.4-.14,3.54.34.96.4,1.84.98,2.46,1.83,1.52,2.1.88,5.18-.11,7.59-1.06,2.57-4.15,4.79-6.71,4.79-.5,0-.97-.08-1.41-.26-2.73-1.13-3.8-5.93-2.55-8.95ZM33.33,57.3l6.02-14.62c1.05-2.56,4.32-3.33,6.41-1.51,1.24,1.08,2.62,3.37,6.92,9.81l7.25,10.85c.26.39.43.82.43,1.28,0,1.82-2.73,3.29-4.13,1.2-.18-.27-11.13-16.65-11.15-16.69-.25-.37-.75-.47-1.12-.22-.37.25-.47.75-.22,1.12,0,0,1.4,2.1,3.22,4.82l-4.94,12h-10.7c.08-2.78.94-5.47,2.03-8.02Z"/>
</svg>