<?xml version="1.0" encoding="UTF-8"?>
<svg id="_圖層_1" data-name="圖層_1" xmlns="http://www.w3.org/2000/svg" viewBox="0 0 108.33 108.33">
  <defs>
    <style>
      .cls-1 {
        fill: #ffdb00;
      }

      .cls-2 {
        fill: #040000;
      }
    </style>
  </defs>
  <circle class="cls-1" cx="54.17" cy="54.17" r="54.17"/>
  <g>
    <path class="cls-2" d="M54.17,29.92c-.38,0-.69-.31-.69-.69v-5.97c0-.38.31-.69.69-.69s.69.31.69.69v5.97c0,.38-.31.69-.69.69Z"/>
    <path class="cls-2" d="M49.41,31.1c-.18,0-.36-.07-.49-.2l-4.22-4.22c-.27-.27-.27-.71,0-.98.13-.13.3-.2.49-.2s.36.07.49.2l4.22,4.22c.27.27.27.71,0,.98-.13.13-.3.2-.49.2Z"/>
    <path class="cls-2" d="M58.92,31.1c-.18,0-.36-.07-.49-.2s-.2-.3-.2-.49.07-.36.2-.49l4.22-4.23c.13-.13.3-.2.49-.2s.36.07.49.2c.27.27.27.71,0,.98l-4.22,4.22c-.13.13-.3.2-.49.2Z"/>
    <path class="cls-2" d="M47.98,48.59c-.18,0-.36-.08-.49-.2-.13-.13-.2-.31-.2-.49s.07-.36.2-.49c.13-.13.31-.2.49-.2s.36.08.49.2c.13.13.2.31.2.49s-.07.36-.2.49c-.13.13-.31.2-.49.2Z"/>
    <path class="cls-2" d="M33.24,83.68c-.3-.05-.53-.29-.57-.59-.04-.3.12-.59.39-.72l6.19-2.91c.13-.06.22-.18.25-.32l1.89-10.92c.04-.22-.09-.43-.29-.49-3.28-1.1-5.31-4.5-4.72-7.91l4.42-25.51c.06-.33.34-.57.68-.57l12.62,2.18s12.67-2.17,12.68-2.17c.44,0,.71.24.77.56l4.42,25.51c.32,1.86-.1,3.73-1.19,5.27-.88,1.25-2.1,2.16-3.53,2.63-.21.07-.33.28-.3.5l1.89,10.92c.02.14.12.26.25.32l6.19,2.91c.27.13.43.42.39.72-.04.3-.27.54-.57.59l-12,2.08h-.12c-.26.01-.49-.13-.61-.36-.14-.27-.09-.59.13-.81l4.85-4.82c.1-.1.15-.25.12-.39l-1.89-10.92c-.04-.21-.22-.36-.43-.36h-.16c-3.44,0-6.37-2.46-6.96-5.86l-3.43-19.81c-.04-.21-.22-.36-.43-.36s-.4.15-.43.36l-3.43,19.81c-.59,3.4-3.51,5.86-6.95,5.86-.21,0-.56.15-.59.36l-1.89,10.92c-.02.14.02.29.12.39l4.81,4.78c.17.15.26.34.26.54,0,.37-.3.68-.67.69l-12.13-2.09ZM68.49,80.76c-.11,0-.23.04-.31.13l-2.16,2.15c-.14.14-.17.35-.08.52.08.15.23.24.39.24.02,0,.05,0,.08,0l4.93-.85c.19-.03.34-.19.36-.38.03-.19-.08-.38-.25-.46l-2.76-1.3c-.06-.03-.12-.04-.19-.04ZM39.84,80.76c-.06,0-.13.01-.19.04l-2.76,1.3c-.17.08-.28.27-.25.46.03.19.17.34.36.38l4.93.85s.05,0,.08,0c.16,0,.31-.09.39-.24.09-.17.05-.38-.08-.52l-2.16-2.15c-.09-.08-.2-.13-.31-.13ZM67.17,42.88l-10.33,1.79c-.24.04-.4.27-.36.51l2.91,16.82c.47,2.73,2.83,4.72,5.6,4.72.32,0,.65-.03.98-.08,1.5-.26,2.8-1.09,3.68-2.33.88-1.24,1.21-2.75.95-4.25l-2.91-16.82c-.02-.11-.09-.22-.18-.28-.07-.05-.16-.08-.25-.08-.02,0-.05,0-.08,0ZM41.08,42.87c-.09,0-.18.03-.25.08-.1.07-.16.17-.18.28l-2.91,16.82c-.26,1.49.08,3,.96,4.25.88,1.24,2.18,2.07,3.67,2.33.33.05.66.08.98.08,2.77,0,5.12-1.98,5.6-4.72l2.91-16.82c.04-.24-.12-.47-.36-.51l-10.34-1.79s-.05,0-.08,0ZM42.4,35.29c-.21,0-.4.15-.43.36l-.93,5.35c-.02.12,0,.23.07.33.07.1.17.16.28.18l10.34,1.79s.05,0,.08,0c.21,0,.4-.15.43-.36l.93-5.35c.02-.12,0-.23-.07-.33-.07-.1-.17-.16-.28-.18l-10.34-1.79s-.05,0-.08,0ZM65.86,35.3l-10.34,1.79c-.24.04-.4.27-.36.51l.93,5.35c.02.11.09.22.18.28.07.05.16.08.25.08.02,0,.05,0,.08,0l10.34-1.79c.24-.04.4-.27.36-.51l-.93-5.35c-.04-.21-.22-.36-.43-.36-.02,0-.05,0-.08,0Z"/>
    <path class="cls-2" d="M59.98,47.82c-.18,0-.36-.07-.49-.2-.13-.13-.2-.31-.2-.49s.07-.36.2-.49c.13-.13.31-.2.49-.2s.36.07.49.2c.13.13.21.31.21.49s-.07.36-.2.49c-.13.13-.31.2-.49.2Z"/>
    <path class="cls-2" d="M66.08,47.82c-.18,0-.36-.07-.49-.2-.13-.13-.2-.31-.2-.49s.08-.36.2-.49c.13-.13.31-.2.49-.2s.36.07.49.2c.13.13.2.31.2.49s-.07.36-.2.49c-.13.13-.31.2-.49.2Z"/>
    <path class="cls-2" d="M63.58,51.98c-.18,0-.36-.07-.49-.2-.13-.13-.2-.3-.2-.49s.07-.36.2-.49.31-.2.49-.2.36.08.49.2c.13.13.2.31.2.49s-.07.36-.2.49c-.13.13-.31.2-.49.2Z"/>
    <path class="cls-2" d="M42.25,51.61c-.18,0-.36-.07-.49-.2-.13-.13-.2-.31-.2-.49s.07-.36.2-.49.31-.2.49-.2.36.07.49.2c.13.13.2.31.2.49s-.07.36-.2.49c-.12.13-.31.2-.49.2Z"/>
    <path class="cls-2" d="M46.51,54.21c-.18,0-.36-.07-.49-.2-.13-.13-.2-.31-.2-.49s.07-.36.2-.49c.13-.13.31-.2.49-.2s.36.07.48.2c.13.13.21.31.21.49s-.08.36-.2.49c-.13.13-.31.2-.49.2Z"/>
  </g>
</svg>