<?xml version="1.0" encoding="UTF-8"?>
<svg id="_圖層_1" data-name="圖層_1" xmlns="http://www.w3.org/2000/svg" viewBox="0 0 108.33 108.33">
  <defs>
    <style>
      .cls-1 {
        fill: #252424;
      }

      .cls-2 {
        fill: #ffdb00;
      }
    </style>
  </defs>
  <circle class="cls-2" cx="54.17" cy="54.17" r="54.17"/>
  <g>
    <path class="cls-1" d="M79.92,60.8c-.18-.25-.48-.4-.79-.4-2.66,0-4.46-1.33-6.54-2.88-.45-.33-.9-.67-1.37-1-1.9-1.33-4.31-2.68-7.76-2.68-1.45,0-2.64.01-3.59.04h-7.34c-1.61,0-2.91,1.31-2.91,2.92s1.31,2.92,2.91,2.92h6.8c.91.18,1.57.97,1.57,1.91,0,.67-.35,1.29-.92,1.64-.37.1-1.32.35-2.53.67-.87.21-1.75.44-2.59.69l-.18.05c-4.72,1.25-6.3,1.66-6.76,1.77-.22,0-.4,0-.55-.02l-10.67-6.92-1.95-1.41s-.08-.05-.11-.07c-.1-.06-.2-.12-.31-.17-.21-.11-.41-.19-.62-.26-.15-.04-.32-.08-.51-.11-.48-.07-.87-.06-1.28.02-2.11.21-3.7,1.95-3.7,4.07,0,1.08.42,2.1,1.2,2.87.02.02.03.04.05.05.28.27.59.5.92.68l17.7,12.83c.08.06.18.11.27.14l.15.06s.03.01.05.02c.53.18,1.03.27,1.53.27.3,0,.61-.03.92-.09.02,0,.04,0,.06-.01l.08-.02c11.22-2.86,19.25-4.88,23.23-5.86.04,0,.07-.02.11-.03l.35-.13c1.93-.48,3.42-.74,4.29-.74.54,0,.97-.44.97-.97v-.65c.01-.06.02-.12.01-.18v-8.26c.03-.26-.03-.53-.19-.74ZM78.15,69.71c-.99.11-2.28.36-3.84.75-.03,0-.08.03-.12.04l-.33.13c-4.01.99-12.02,3.01-23.2,5.86h-.05c-.47.1-.89.08-1.4-.1l-17.73-12.82s-.08-.06-.13-.08c-.18-.09-.36-.22-.52-.37,0,0-.02-.02-.03-.03-.41-.41-.64-.95-.64-1.51,0-1.12.85-2.04,1.98-2.14.04,0,.08,0,.11-.02.2-.04.39-.05.64-.01.09.01.18.03.25.05.09.03.19.07.31.13.06.03.13.06.18.1.01,0,.03.02.04.03l1.9,1.37s.03.02.04.03l10.85,7.03c.09.06.19.1.29.13.39.1.83.13,1.35.1.06,0,.11-.01.17-.02.49-.12,2.81-.72,6.89-1.8l.2-.05c.84-.24,1.69-.47,2.55-.68,1.41-.37,2.46-.65,2.68-.71.08-.02.15-.05.22-.09,1.25-.69,2.02-1.99,2.02-3.4,0-1.92-1.37-3.53-3.27-3.84-.05,0-.11-.01-.16-.01h-6.89c-.53,0-.97-.44-.97-.97s.43-.97.97-.97h7.37c.96-.03,2.13-.04,3.56-.04,2.9,0,4.91,1.12,6.64,2.33.45.32.89.64,1.32.96,1.94,1.44,3.94,2.92,6.72,3.21v7.37s0,.04,0,.06Z"/>
    <path class="cls-1" d="M61.66,27.49v-.05c-.01-.51-.41-.92-.92-.95h-.05s-.03,0-.05,0c-6.8,0-12.76,4.15-15.24,10.24-.45-2.67-1.7-5.23-3.73-7.26-.07-.07-.14-.13-.21-.2-.03-.03-.06-.05-.09-.08-.36-.34-.93-.34-1.31-.02-.02.02-.04.04-.06.06-5.01,5.01-5.24,13.08-.52,18.37l.04.04-5.92,5.91,1.01,1.01,5.92-5.92.04.04c2.55,2.27,5.73,3.4,8.91,3.4,3.43,0,6.85-1.31,9.45-3.91,0,0,.04-.04.05-.05.34-.36.33-.96,0-1.34-.01-.02-.03-.03-.05-.05-2.19-2.19-4.97-3.47-7.87-3.82,6.23-2.35,10.6-8.34,10.6-15.42ZM56.84,47.44c-4.3,3.63-10.7,3.6-14.98-.22-.05-.04-.09-.08-.14-.12-.03-.03-.06-.05-.09-.07-.05-.05-.1-.09-.15-.14-.04-.03-.08-.07-.14-.13-.09-.09-.18-.2-.27-.29l-.15-.17c-3.82-4.29-3.85-10.7-.2-15,3.51,3.91,3.91,9.76.9,14.13-.27.39-.22.91.11,1.24.33.33.85.38,1.24.11,4.28-2.95,9.98-2.63,13.87.67ZM46.14,42c.04-.54.11-1.09.22-1.67h0c1.21-6.58,6.73-11.44,13.33-11.87-.46,7.28-6.21,13.07-13.55,13.54Z"/>
  </g>
</svg>