<?xml version="1.0" encoding="UTF-8"?>
<svg id="_圖層_1" data-name="圖層_1" xmlns="http://www.w3.org/2000/svg" viewBox="0 0 108.33 108.33">
  <defs>
    <style>
      .cls-1 {
        fill: #252424;
      }

      .cls-2 {
        fill: #ffdb00;
      }
    </style>
  </defs>
  <circle class="cls-2" cx="54.17" cy="54.17" r="54.17"/>
  <path class="cls-1" d="M60.31,81.52c-6.35,0-12.67-2.67-17.34-7.33-5.13-5.13-7.77-12.04-7.26-18.97.02-.32-.13-.63-.41-.8-4.13-2.48-7.6-6.1-8.44-8.81-.08-.28-.03-.58.14-.81.17-.21.45-.36.72-.36h2.71c.33,0,.64-.19.78-.49.14-.3.09-.66-.12-.91l-.56-.67c-2.57-3.24-3.71-7.75-3.71-14.64,0-.51.4-.91.91-.91,6.35,0,11.14,1.21,14.63,3.69.17.11.3.22.43.34l.27.22c.15.12.34.18.53.18.13,0,.26-.03.38-.09.29-.14.48-.44.48-.77v-2.66c0-.3.14-.57.37-.74.16-.11.35-.18.54-.18.09,0,.19.01.28.04,2.71.83,6.35,4.34,8.85,8.54.15.26.44.42.74.42.6-.05,1.1-.09,1.62-.09,6.33,0,12.65,2.67,17.34,7.33,4.67,4.66,7.34,10.97,7.34,17.31,0,5.77-2.18,11.11-6.12,15.04-3.96,3.94-9.32,6.11-15.09,6.11ZM56.84,37.54c-5.29,0-10.2,1.98-13.81,5.57-3.61,3.61-5.59,8.5-5.59,13.78,0,5.86,2.49,11.69,6.83,16.01,4.32,4.33,10.17,6.81,16.05,6.81,5.3,0,10.2-1.99,13.81-5.59,3.59-3.58,5.57-8.46,5.57-13.76,0-5.87-2.48-11.71-6.81-16.01-4.33-4.32-10.17-6.8-16.05-6.8ZM33.46,46.16c-.11,0-.21.02-.31.06l-2.41.05c-.33,0-.63.19-.77.49-.14.3-.1.66.11.91,1.18,1.45,2.97,3.04,4.9,4.36.14.1.31.15.48.15.11,0,.21-.02.31-.06.26-.1.46-.32.52-.59.15-.63.34-1.25.56-1.88.12-.35,0-.73-.28-.95-.85-.67-1.67-1.42-2.51-2.27-.16-.17-.38-.26-.61-.26ZM29.52,28.67c-.23,0-.44.09-.6.25-.17.17-.26.4-.25.64.18,5.38,1.23,9.1,3.31,11.7,1.71,2.17,3.4,4,5.02,5.43.16.14.36.21.57.21.41-.06.63-.21.75-.44.31-.56.63-1.09.97-1.62.24-.37.15-.87-.2-1.14-3.53-2.72-5.98-5.78-6.92-8.63-.08-.24-.07-.48.04-.69.1-.21.29-.37.52-.44.11-.04.2-.05.3-.05.38,0,.72.25.84.61.85,2.52,3.18,5.37,6.4,7.82.15.11.33.18.52.18.23,0,.45-.09.61-.25l.16-.18c.07-.08.11-.12.16-.17,1.28-1.3,2.74-2.4,4.48-3.37.21-.12.36-.32.41-.55.05-.23,0-.48-.13-.67-1.45-2.11-3.13-3.84-5.16-5.29-2.87-2.03-6.72-3.11-11.77-3.31h-.03ZM47.11,29.88c-.13,0-.25.03-.37.08-.3.14-.49.44-.49.77v2.27c0,.08-.04.21-.07.32-.09.31-.02.6.16.82.65.76,1.28,1.61,1.93,2.58.16.24.43.38.71.38.1,0,.2-.02.29-.05.65-.24,1.38-.46,2.3-.7.27-.07.49-.27.59-.53.1-.26.06-.55-.1-.78-1.38-2.01-2.95-3.78-4.43-4.98-.15-.12-.34-.19-.54-.19ZM60.31,76.23c-4.96,0-9.92-2.11-13.6-5.8-3.68-3.67-5.8-8.61-5.8-13.55,0-4.36,1.63-8.38,4.58-11.31.17-.18.39-.27.63-.27s.47.09.64.27c.17.17.27.4.27.64,0,.25-.09.48-.27.65-2.6,2.61-4.04,6.17-4.04,10.02,0,4.46,1.92,8.93,5.26,12.28,3.36,3.34,7.85,5.25,12.33,5.25,3.87,0,7.45-1.43,10.07-4.04.17-.17.4-.27.65-.27s.46.09.62.26c.36.36.36.94,0,1.3-2.94,2.94-6.97,4.56-11.35,4.56ZM57.69,70.94c-.5,0-.91-.41-.91-.91,0-.47-.38-.85-.85-.85h-3.53c-.5,0-.91-.41-.91-.91s.4-.91.91-.91h3.53c.47,0,.85-.38.85-.85v-5.29c0-.47-.38-.85-.85-.85h-5.29c-.47,0-.85.38-.85.85v1.76c0,.51-.4.91-.91.91s-.91-.41-.91-.91v-1.76c0-.47-.38-.85-.85-.85-.5,0-.91-.41-.91-.91s.4-.91.91-.91c.47,0,.85-.38.85-.85v-7.05c0-.51.4-.91.91-.91h7.05c.47,0,.85-.38.85-.85v-3.53c0-.51.4-.91.91-.91s.91.4.91.91v3.53c0,.47.38.85.85.85h5.29c.47,0,.85-.38.85-.85v-3.53c0-.51.4-.91.91-.91s.91.4.91.91v3.53c0,.47.38.85.85.85h3.53c.51,0,.91.4.91.91s-.4.91-.91.91h-3.53c-.47,0-.85.38-.85.85v5.29c0,.47.38.85.85.85h3.53c.51,0,.91.4.91.91s-.4.91-.91.91h-3.53c-.47,0-.85.38-.85.85v7.05c0,.51-.4.91-.91.91h-7.05c-.47,0-.85.38-.85.85,0,.51-.4.91-.91.91ZM59.45,60.37c-.47,0-.85.38-.85.85v5.29c0,.47.38.85.85.85h5.29c.47,0,.85-.38.85-.85v-5.29c0-.47-.38-.85-.85-.85h-5.29ZM59.45,51.55c-.47,0-.85.38-.85.85v5.29c0,.47.38.85.85.85h5.29c.47,0,.85-.38.85-.85v-5.29c0-.47-.38-.85-.85-.85h-5.29ZM50.64,51.55c-.47,0-.85.38-.85.85v5.29c0,.47.38.85.85.85h5.29c.47,0,.85-.38.85-.85v-5.29c0-.47-.38-.85-.85-.85h-5.29Z"/>
</svg>