<?xml version="1.0" encoding="UTF-8"?>
<svg id="_圖層_1" data-name="圖層_1" xmlns="http://www.w3.org/2000/svg" viewBox="0 0 108.33 108.33">
  <defs>
    <style>
      .cls-1 {
        fill: #ffdb00;
      }

      .cls-2 {
        fill: #040000;
      }
    </style>
  </defs>
  <circle class="cls-1" cx="54.17" cy="54.17" r="54.17"/>
  <g>
    <path class="cls-2" d="M36.95,70.52c-1.95,0-3.54-1.59-3.54-3.54s1.59-3.54,3.54-3.54,3.54,1.59,3.54,3.54-1.59,3.54-3.54,3.54ZM36.95,65.22c-.97,0-1.76.79-1.76,1.76s.79,1.76,1.76,1.76,1.76-.79,1.76-1.76-.79-1.76-1.76-1.76Z"/>
    <path class="cls-2" d="M69.88,70.52c-1.95,0-3.54-1.59-3.54-3.54s1.59-3.54,3.54-3.54,3.54,1.59,3.54,3.54-1.59,3.54-3.54,3.54ZM69.88,65.22c-.97,0-1.76.79-1.76,1.76s.79,1.76,1.76,1.76,1.76-.79,1.76-1.76-.79-1.76-1.76-1.76Z"/>
    <path class="cls-2" d="M69.88,76.61c-4.87,0-8.98-3.65-9.56-8.49-.02-.14-.14-.25-.28-.25h-4.82c-.49,0-.89-.4-.89-.89s.4-.89.89-.89h4.82c.14,0,.27-.11.28-.25.57-4.84,4.68-8.49,9.56-8.49s8.82,3.52,9.52,8.2c.02.14.14.24.28.24,0,0,.02,0,.03,0,3.51-.4,3.67-2.81,3.67-7.39,0-1.47-.11-2.71-.35-3.78-.03-.13-.14-.22-.28-.22h-31.89c-.49,0-.89-.4-.89-.89s.4-.89.89-.89h31c.1,0,.2-.06.25-.15s.05-.2,0-.29c-1.04-1.7-2.76-2.52-5.27-2.52H25.23c-.16,0-.28.13-.28.28v2.39c0,.16.13.28.28.28h16c.49,0,.89.4.89.89s-.4.89-.89.89h-16c-.16,0-.28.13-.28.28v3.72c0,6.04,0,7.29,2.15,7.56.01,0,.02,0,.04,0,.14,0,.26-.1.28-.25.63-4.77,4.73-8.36,9.54-8.36s8.98,3.65,9.56,8.49c.02.14.14.25.28.25h4.55c.49,0,.89.4.89.89s-.4.89-.89.89h-4.55c-.14,0-.27.11-.28.25-.57,4.84-4.68,8.49-9.56,8.49s-9.06-3.71-9.58-8.62c-.01-.13-.11-.24-.25-.25-3.97-.52-3.97-2.74-3.97-9.34v-25.78c0-.49.4-.89.89-.89h27.2c8.57,0,15.36,13.31,16.64,15.98.05.1.15.16.26.16h8.69c3.19,0,5.5,1.17,6.86,3.48,1,1.7,1.47,3.94,1.47,7.05,0,4.26,0,8.66-5.44,9.18-.14.01-.24.12-.26.26-.44,4.92-4.65,8.77-9.59,8.77ZM69.88,59.13c-4.33,0-7.85,3.52-7.85,7.84s3.52,7.85,7.85,7.85,7.84-3.52,7.84-7.85-3.52-7.84-7.84-7.84ZM36.95,59.13c-4.33,0-7.85,3.52-7.85,7.84s3.52,7.85,7.85,7.85,7.84-3.52,7.84-7.85-3.52-7.84-7.84-7.84ZM44.83,33.51c-.16,0-.28.13-.28.28v13.79c0,.16.13.28.28.28h20.69c.1,0,.19-.05.24-.14.05-.09.06-.19,0-.28-2.16-4.19-7.88-13.95-14.52-13.95h-6.42ZM25.23,33.51c-.16,0-.28.13-.28.28v13.79c0,.16.13.28.28.28h17.25c.16,0,.28-.13.28-.28v-13.79c0-.16-.13-.28-.28-.28h-17.25Z"/>
    <path class="cls-2" d="M44.99,54.39c-.49,0-.89-.4-.89-.89s.4-.89.89-.89h2.24c.49,0,.89.4.89.89s-.4.89-.89.89h-2.24Z"/>
  </g>
</svg>