<?xml version="1.0" encoding="UTF-8"?>
<svg id="_圖層_1" data-name="圖層_1" xmlns="http://www.w3.org/2000/svg" viewBox="0 0 108.33 108.33">
  <defs>
    <style>
      .cls-1 {
        fill: #252424;
      }

      .cls-2 {
        fill: #ffdb00;
      }
    </style>
  </defs>
  <circle class="cls-2" cx="54.17" cy="54.17" r="54.17"/>
  <g>
    <path class="cls-1" d="M44.47,48.33c-.53,0-.95-.43-.95-.96s.43-.95.95-.95.96.43.96.95-.43.96-.96.96Z"/>
    <path class="cls-1" d="M45.35,60.67c-1.01,0-1.84-.82-1.84-1.84s.83-1.84,1.84-1.84,1.84.83,1.84,1.84-.82,1.84-1.84,1.84Z"/>
    <path class="cls-1" d="M42.71,65.96c-.53,0-.95-.43-.95-.96s.43-.95.95-.95.95.43.95.95-.43.96-.95.96Z"/>
    <path class="cls-1" d="M32.06,76.53c-2.43,0-4.41-1.98-4.41-4.41v-19.46c0-7.44,4.68-11.33,6.69-12.66.23-.15.36-.4.36-.67v-14.73c0-1.57,1.28-2.86,2.86-2.86h6.78c1.57,0,2.86,1.28,2.86,2.86v16.56c-1.11-.35-1.91-1.38-1.91-2.6v-8.81c0-.45-.36-.81-.81-.81h-7.05c-.45,0-.81.36-.81.81v10.58c0,.36-.2.69-.53.85-.27.14-6.52,3.42-6.52,11.49v19.46c0,1.38,1.12,2.5,2.5,2.5h17.77c1.38,0,2.5-1.12,2.5-2.5v-4.55h1.91v4.55c0,2.43-1.98,4.41-4.41,4.41h-17.77ZM37.56,23.65c-.52,0-.94.42-.94.95v1.62c0,.45.36.81.81.81h7.05c.45,0,.81-.36.81-.81v-1.62c0-.52-.42-.95-.94-.95h-6.78Z"/>
    <path class="cls-1" d="M33.89,71.24c-.53,0-.95-.43-.95-.96v-17.63c0-5.99,4.48-8.37,4.67-8.47.12-.06.27-.1.42-.1.37,0,.69.2.86.53.24.47.04,1.05-.43,1.28-.18.1-3.6,2.1-3.6,6.76v15.87c0,.45.36.81.81.81h12.34c.53,0,.96.43.96.95s-.43.96-.96.96h-14.1Z"/>
    <path class="cls-1" d="M40.94,53.62c-.53,0-.96-.43-.96-.95s.43-.96.96-.96.95.43.95.96-.43.95-.95.95Z"/>
    <path class="cls-1" d="M63.86,76.53c-2.09,0-4.48-2.39-4.48-4.48,0-2.37-.17-4.66-.54-7.2-.05-.38-.36-.66-.74-.69-3.62-.27-7.53-3.39-7.53-7.98v-12.34c0-4.72,3.52-7.41,6.8-7.91.26-.04.49-.21.6-.45,1.13-2.33,4.55-4.93,7.65-4.93s6.51,2.59,7.64,4.91c.12.25.36.42.63.45,2.04.24,6.78,1.48,6.78,7.94,0,5.58-.92,10.11-1.8,14.5-.89,4.4-1.72,8.54-1.72,13.71,0,2.09-2.39,4.48-4.48,4.48h-8.81ZM58.6,44.8c-.22,0-.43.09-.58.25-.15.16-.23.37-.23.59.16,4.56.92,8.32,1.72,12.31.87,4.32,1.77,8.76,1.77,14.1,0,1.03,1.54,2.57,2.57,2.57h8.81c1.03,0,2.57-1.54,2.57-2.57,0-5.35.9-9.79,1.76-14.08.81-4.01,1.57-7.78,1.73-12.34,0-.22-.07-.43-.23-.59-.15-.16-.36-.25-.58-.25h-19.33ZM65.62,32.46c-2.63,0-5.83,2.91-6.09,4.24-.01.66-.42,1.05-.97,1.05-2.96,0-6.1,2.14-6.1,6.1v12.34c0,3.08,2.36,5.16,4.7,5.86.08.02.15.03.23.03.2,0,.39-.07.54-.21.21-.19.3-.47.25-.75-.18-.92-.36-1.83-.54-2.76-.89-4.39-1.8-8.93-1.8-14.51,0-.53.43-.96.95-.96h20.94c.25,0,.48-.11.64-.31.15-.19.21-.45.15-.69-.64-2.67-2.72-4.15-5.86-4.15-.53,0-.95-.43-.95-.95-.28-1.47-3.48-4.33-6.1-4.33Z"/>
    <path class="cls-1" d="M65.62,71.24c-.53,0-.95-.43-.95-.96,0-4.75-.53-6.99-1.27-10.09l-.05-.23c-.14-.57-.28-1.17-.42-1.82-.19-.86-.38-1.64-.56-2.39-.51-2.14-.96-3.98-1.22-6.54-.03-.25.05-.5.21-.7.16-.2.39-.32.65-.35h.02c.58,0,.98.38,1.03.85.25,2.42.67,4.2,1.17,6.25.19.79.38,1.58.57,2.45.14.63.47,2.02.47,2.02.63,2.64,1.17,4.92,1.29,8.79.01.44.37.78.81.78h3.55c.53,0,.95.43.95.95s-.43.96-.95.96h-5.29Z"/>
    <path class="cls-1" d="M69.15,50.09c-.53,0-.96-.43-.96-.95s.43-.96.96-.96.95.43.95.96-.43.95-.95.95Z"/>
    <path class="cls-1" d="M73.56,51.85s-.08-.03-.08-.08l.08.08Z"/>
    <path class="cls-1" d="M70.03,60.67s-.07-.03-.07-.07l.07.07Z"/>
    <path class="cls-1" d="M70.91,57.14c-.53,0-.95-.43-.95-.96s.43-.95.95-.95.95.43.95.95-.43.96-.95.96Z"/>
  </g>
</svg>