<?xml version="1.0" encoding="UTF-8"?>
<svg id="_圖層_1" data-name="圖層_1" xmlns="http://www.w3.org/2000/svg" viewBox="0 0 108.33 108.33">
  <defs>
    <style>
      .cls-1 {
        fill: #ffdb00;
      }
    </style>
  </defs>
  <circle class="cls-1" cx="54.17" cy="54.17" r="54.17"/>
  <path d="M42.74,41.39c-1.38-1.37-2.88-2.55-4-4.03-3.5-4.64-1.35-10.84,4.16-12.15,2.95-.7,5.52.34,7.56,2.4,1.46,1.47,2.61,3.25,3.91,4.91.19-.33.49-.89.81-1.44,1.27-2.19,2.92-4,5.18-5.18,2.95-1.54,6.3-1.05,8.7,1.23,2.36,2.24,2.98,5.49,1.65,8.52-.84,1.91-2.22,3.36-3.85,4.6-.41.32-.84.61-1.55,1.14,2.26,0,4.17,0,6.09,0,1.86,0,3.72-.02,5.58,0,1.55.02,2.35.84,2.36,2.39.01,2.23-.01,4.46,0,6.69.01,1.18-.51,1.92-1.6,2.37-.3.12-.6.61-.62.94-.35,6.72-.67,13.44-.98,20.17-.1,2.1-.18,4.21-.27,6.31-.08,1.9-1.25,3.07-3.14,3.07-12.31,0-24.62,0-36.93,0-2,0-3.11-1.04-3.26-3.11-.14-2.02-.2-4.04-.29-6.06-.28-6.35-.55-12.71-.83-19.06-.05-1.1.11-2.23-1.41-2.71-.47-.15-.89-1.2-.92-1.86-.11-2.27-.08-4.54-.03-6.81.03-1.54.89-2.33,2.44-2.33,3.76-.01,7.52,0,11.25,0ZM48.38,81.55v-28.59h-15.25c.11,2.35.2,4.61.31,6.87.32,6.76.65,13.52.95,20.28.04.98.49,1.44,1.45,1.44,4.13,0,8.25,0,12.54,0ZM60.03,81.55c3.98,0,7.86,0,11.73,0,2.05,0,2.24-.21,2.33-2.25.3-6.77.64-13.53.93-20.3.08-2,.01-4.01.01-6.06h-15v28.61ZM50.37,81.48h7.66v-38.23h-7.66v38.23ZM48.39,43.18c-5.63,0-11.11.01-16.59-.01-.75,0-.89.34-.88.98.02,1.9.06,3.79-.01,5.69-.03.97.26,1.26,1.25,1.25,5.11-.05,10.22-.02,15.34-.03.28,0,.55-.04.9-.07v-7.82ZM60.01,51.07c5.65,0,11.17,0,16.69,0,.79,0,.84-.46.84-1.04,0-1.9-.05-3.8,0-5.69.03-.95-.34-1.18-1.23-1.18-5.12.04-10.23.02-15.35.02-.31,0-.63.06-.96.09v7.79ZM59.74,40.59c.2.13.56.56.84.51,3.45-.61,7.53-3.36,8.68-6.8.69-2.06.27-3.92-1.18-5.51-1.47-1.61-3.26-2.3-5.46-1.78-3.57.84-6.75,5.26-7.32,8.92-.04.23.24.5.37.76.25-.19.64-.32.74-.57.66-1.69,1.58-3.18,3.04-4.28,1.61-1.21,3.25-1.07,4.68.33,1.68,1.63,1.77,3.63-.03,5.31-1.24,1.15-2.77,2-4.36,3.12ZM52.91,36.78c.09-.13.18-.27.27-.4-.47-3.23-2.21-6.23-4.74-8.1-1.37-1.01-2.88-1.67-4.61-1.4-3.99.6-6.15,4.78-4.25,8.34,1.74,3.27,4.66,5.02,8.17,5.87.28.07.68-.35,1.23-.65-1.17-.58-1.98-.89-2.69-1.36-.75-.49-1.49-1.06-2.09-1.71-1.57-1.69-1.51-3.6.06-5.16,1.6-1.58,3.53-1.68,5.12,0,1.05,1.11,1.74,2.56,2.63,3.83.21.31.6.49.9.74ZM49.62,38.54c.23-.33.84-.82.76-1.16-.36-1.74-1.22-3.22-2.76-4.22-.8-.53-1.49-.21-2.1.38-.62.6-.9,1.29-.36,2.09.99,1.47,2.46,2.26,4.45,2.91ZM63.74,34.63c-.51-.55-.91-1.24-1.49-1.53-.44-.21-1.38-.1-1.66.24-.95,1.15-1.83,2.4-2.49,3.73-.46.93.36,1.69,1.33,1.23,1.23-.59,2.37-1.41,3.48-2.22.35-.26.48-.81.83-1.44ZM57.92,41.32c-.38-1.81-1.85-2.96-3.73-2.95-1.88,0-3.3,1.11-3.73,2.95h7.46Z"/>
</svg>