<?xml version="1.0" encoding="UTF-8"?>
<svg id="_圖層_1" data-name="圖層_1" xmlns="http://www.w3.org/2000/svg" viewBox="0 0 108.33 108.33">
  <defs>
    <style>
      .cls-1 {
        fill: #ffdb00;
      }

      .cls-2 {
        fill: #040000;
      }
    </style>
  </defs>
  <circle class="cls-1" cx="54.17" cy="54.17" r="54.17"/>
  <path class="cls-2" d="M45.09,85.54c-.3,0-.56-.19-.66-.47-.09-.28,0-.59.24-.77l5.59-4.21c.11-.08.17-.21.17-.35v-1.75c0-.23-.17-.42-.4-.44-5.96-.57-10.48-2.28-12.07-4.56-.08-.12-.22-.19-.36-.19h-10.13c-.38,0-.69-.31-.69-.69s.31-.69.69-.69h4.36c.24,0,.44-.2.44-.44v-15.19c0-.38.31-.69.69-.69h5.59c.24,0,.44-.2.44-.44v-11.79c0-.38.31-.69.69-.69h5.91c.24,0,.44-.2.44-.44v-8.7c0-.38.31-.69.69-.69h3.79c.18,0,.35-.11.41-.28.06-.17.02-.37-.12-.49-.74-.65-1.34-1.34-1.77-2.03-1.04-1.67-1-3.06-.78-3.93.42-1.66,1.84-2.82,3.44-2.82.79,0,1.54.29,2.18.84.08.07.19.11.29.11s.21-.03.29-.11c.64-.55,1.39-.84,2.18-.84,1.6,0,3.01,1.16,3.44,2.83.22.87.27,2.26-.78,3.93-.44.7-1.04,1.38-1.77,2.03-.14.12-.19.31-.12.49.07.17.23.29.41.29h3.79c.38,0,.69.31.69.69v8.7c0,.24.2.44.44.44h5.91c.38,0,.69.31.69.69v11.79c0,.24.2.44.44.44h5.59c.38,0,.69.31.69.69v15.19c0,.24.2.44.44.44h4.36c.38,0,.69.31.69.69s-.31.69-.69.69h-10.13c-.14,0-.28.07-.36.19-1.59,2.28-6.11,3.99-12.07,4.56-.23.02-.4.21-.4.44v1.75c0,.14.07.27.17.35l5.59,4.21c.24.18.33.49.24.77-.09.28-.36.47-.66.47h-18.15ZM51.13,76.25c.38,0,.69.31.69.69v3.36c0,.21-.1.42-.28.55l-3.34,2.51c-.15.11-.21.31-.15.49.06.18.23.3.42.3h11.38c.19,0,.36-.12.42-.3.06-.18,0-.38-.15-.49l-3.34-2.51c-.17-.13-.28-.33-.28-.55v-3.36c0-.38.31-.69.69-.69,4.31-.31,8.07-1.27,10.36-2.63.17-.1.25-.3.2-.5s-.23-.32-.43-.32h-26.33c-.2,0-.37.13-.43.32s.03.39.2.5c2.29,1.36,6.05,2.32,10.31,2.63h.04ZM34.1,58.61c-.09,0-.17.02-.24.07-.12.08-.2.22-.2.37v11.93c0,.24.2.44.44.44h40.13c.24,0,.44-.2.44-.44v-11.93c0-.15-.07-.28-.19-.37-.07-.05-.16-.07-.25-.07-.06,0-.11.01-.17.03-.69.28-1.18.78-1.74,1.36-.92.95-1.97,2.02-4.03,2.02s-3.1-1.07-4.02-2.02c-.84-.86-1.56-1.6-3.04-1.6s-2.2.74-3.04,1.6c-.93.95-1.97,2.02-4.03,2.02s-3.1-1.07-4.03-2.02c-.84-.86-1.56-1.6-3.04-1.6s-2.2.74-3.04,1.6c-.93.95-1.97,2.02-4.03,2.02s-3.1-1.07-4.03-2.02c-.54-.55-1.05-1.07-1.74-1.36-.05-.02-.11-.03-.17-.03ZM63.14,56.48c-.21,0-.39.15-.43.36s.07.41.27.49c1,.39,1.68,1.09,2.28,1.7.84.86,1.57,1.6,3.04,1.6s2.2-.74,3.04-1.6c.6-.62,1.28-1.31,2.28-1.7.2-.08.31-.28.27-.49-.04-.21-.22-.36-.43-.36h-10.32ZM49.01,56.48c-.21,0-.39.15-.43.36s.07.41.27.49c1,.39,1.68,1.09,2.28,1.7.18.18.34.35.5.5.27.26.64.59,1.12.81.43.2.89.29,1.42.29,1.47,0,2.2-.74,3.04-1.6.6-.62,1.28-1.32,2.28-1.71.2-.08.31-.28.27-.49s-.22-.36-.43-.36h-10.32ZM34.87,56.48c-.21,0-.4.15-.43.36-.04.21.08.42.27.49,1.01.39,1.69,1.09,2.29,1.7.84.86,1.57,1.6,3.04,1.6s2.2-.74,3.04-1.6c.6-.62,1.28-1.31,2.28-1.71.2-.08.31-.28.27-.49s-.22-.36-.43-.36h-10.33ZM40.82,46.24s-.09,0-.14.02c-.18.06-.3.23-.3.42v7.98c0,.24.2.44.44.44h26.69c.24,0,.44-.2.44-.44v-7.98c0-.19-.12-.36-.3-.42-.05-.02-.09-.02-.14-.02-.14,0-.27.07-.36.18-.11.15-.22.32-.35.51-.63.95-1.41,2.12-2.99,2.12s-2.36-1.17-2.99-2.12c-.62-.93-1.04-1.5-1.84-1.5-.4,0-.73.15-1.05.47-.2.2-.4.47-.66.85l-.1.15c-.66.98-1.44,2.16-3.01,2.16s-2.36-1.17-2.99-2.12c-.62-.93-1.05-1.5-1.84-1.5-.23,0-.43.05-.63.15-.34.17-.6.49-.9.9l-.31.45c-.63.95-1.41,2.12-2.99,2.12s-2.36-1.17-2.99-2.12c-.13-.19-.24-.36-.35-.51-.09-.12-.22-.18-.36-.18ZM60.54,43.57c-.2,0-.38.14-.43.33-.05.19.04.4.21.5.75.42,1.25,1.17,1.65,1.77.62.93,1.04,1.5,1.84,1.5s1.22-.57,1.84-1.5c.4-.6.9-1.35,1.66-1.77.17-.1.26-.3.21-.5s-.23-.33-.43-.33h-6.55ZM50.89,43.57c-.2,0-.38.14-.43.33-.05.19.04.4.21.5.74.42,1.24,1.17,1.65,1.77.62.93,1.04,1.5,1.84,1.5s1.22-.57,1.84-1.5c.4-.6.9-1.35,1.65-1.77.17-.1.26-.3.21-.5-.05-.19-.23-.33-.43-.33h-6.54ZM41.24,43.57c-.2,0-.38.14-.43.33-.05.19.04.4.21.5.75.42,1.25,1.17,1.65,1.77.62.93,1.04,1.5,1.84,1.5s1.22-.57,1.84-1.5c.4-.6.9-1.35,1.65-1.77.17-.1.26-.3.21-.5-.05-.19-.23-.33-.43-.33h-6.54ZM47.86,37.64c-.24,0-.44.2-.44.44v3.66c0,.24.2.44.44.44h12.6c.24,0,.44-.2.44-.44v-3.66c0-.24-.2-.44-.44-.44h-12.6ZM47.86,33.74c-.24,0-.44.2-.44.44v1.65c0,.24.2.44.44.44h12.6c.24,0,.44-.2.44-.44v-1.65c0-.24-.2-.44-.44-.44h-12.6ZM51.7,24.17c-.95,0-1.83.75-2.1,1.79-.19.74-.43,3.36,4.34,6.17.07.04.15.06.22.06s.16-.02.22-.06c4.77-2.81,4.53-5.43,4.34-6.17-.26-1.04-1.15-1.79-2.1-1.79-.51,0-1.26.21-1.88,1.24-.12.2-.35.33-.59.33s-.47-.13-.59-.33c-.62-1.02-1.36-1.24-1.87-1.24Z"/>
</svg>