<?xml version="1.0" encoding="UTF-8"?>
<svg id="_圖層_1" data-name="圖層_1" xmlns="http://www.w3.org/2000/svg" viewBox="0 0 108.33 108.33">
  <defs>
    <style>
      .cls-1 {
        fill: #252424;
      }

      .cls-2 {
        fill: #ffdb00;
      }
    </style>
  </defs>
  <circle class="cls-2" cx="54.17" cy="54.17" r="54.17"/>
  <g>
    <path class="cls-1" d="M43.25,49.98c-8.56,0-15.52,6.96-15.52,15.52s6.96,15.52,15.52,15.52c6.77,0,12.53-4.35,14.65-10.4,1.05.04,2.01.06,2.79.06,4.76,0,15.85-.5,15.85-5.17,0-.01,0-.03,0-.04,0-.01,0-.02,0-.04v-6.23c.03-.14.05-.28.05-.43,0-.14-.02-.27-.05-.4v-5.13c.03-.14.05-.28.05-.43,0-.14-.02-.27-.05-.4v-5.71c.03-.14.05-.28.05-.43,0-.25-.05-.48-.13-.7.05-.21.08-.42.08-.64,0-.01,0-.03,0-.04,0-.01,0-.03,0-.04v-6.23c.03-.14.05-.28.05-.43,0-.14-.02-.27-.05-.4v-5.71c.03-.14.05-.28.05-.43,0-.25-.05-.49-.14-.72-.14-.48-.44-.88-.84-1.13-3.24-2.75-13.55-2.84-14.92-2.84s-11.68.09-14.92,2.84c-.4.25-.7.65-.84,1.13-.08.23-.14.47-.14.72,0,.15.02.29.04.43v5.71c-.03.13-.04.26-.04.4,0,.15.02.29.04.43v6.23s0,.03,0,.04c0,.01,0,.02,0,.04,0,.23.03.44.08.64-.08.22-.13.45-.13.7,0,.15.02.29.04.43v3.38c-.52-.05-1.05-.08-1.59-.08ZM74.73,65.37s0,.08,0,.11c0,.02,0,.03,0,.05-.09,1.74-6.35,3.15-14.04,3.15-.76,0-1.51-.02-2.24-.04.21-1.01.32-2.06.32-3.14,0-.27,0-.55-.02-.82.72.02,1.38.03,1.94.03,3.57,0,10.7-.28,14.04-2.39v3.05ZM74.73,59.4s0,.08,0,.11c0,.02,0,.03,0,.05-.09,1.74-6.35,3.15-14.04,3.15-.74,0-1.47-.02-2.18-.04-.3-1.65-.86-3.2-1.64-4.62,1.45.08,2.79.11,3.82.11,3.57,0,10.7-.28,14.04-2.39v3.63ZM74.73,44.79s0,.08,0,.11c0,.02,0,.03,0,.05-.09,1.74-6.35,3.15-14.04,3.15s-13.95-1.41-14.04-3.15c0-.03,0-.07,0-.1,0-.02,0-.04,0-.07v-3.63c3.34,2.11,10.46,2.4,14.04,2.4s10.7-.28,14.04-2.39v3.63ZM60.69,29.23c7.97,0,12.91,1.48,13.74,2.4-.83.92-5.77,2.4-13.74,2.4s-12.91-1.48-13.74-2.4c.83-.92,5.77-2.4,13.74-2.4ZM60.69,36.32c1.26,0,10.12-.08,14.04-2.24v4.17s0,.08,0,.11c0,.02,0,.03,0,.05-.09,1.74-6.35,3.15-14.04,3.15s-13.95-1.41-14.04-3.15c0-.03,0-.07,0-.1,0-.02,0-.04,0-.07v-4.17c3.91,2.17,12.78,2.25,14.04,2.25ZM60.69,50.94c1.26,0,10.12-.08,14.04-2.24v4.17s0,.08,0,.11c0,.02,0,.03,0,.05-.09,1.74-6.35,3.15-14.04,3.15-1.84,0-3.6-.08-5.22-.23-2.17-2.78-5.27-4.79-8.82-5.59v-1.66c3.91,2.17,12.78,2.25,14.04,2.25ZM56.78,65.49c0,7.46-6.07,13.53-13.53,13.53s-13.53-6.07-13.53-13.53,6.07-13.53,13.53-13.53,13.53,6.07,13.53,13.53Z"/>
    <path class="cls-1" d="M32.79,65.49c0,5.77,4.69,10.46,10.46,10.46s10.46-4.69,10.46-10.46-4.69-10.46-10.46-10.46-10.46,4.69-10.46,10.46ZM52.38,65.49c0,5.04-4.1,9.13-9.13,9.13s-9.13-4.1-9.13-9.13,4.1-9.13,9.13-9.13,9.13,4.1,9.13,9.13Z"/>
    <path class="cls-1" d="M41.97,58.9v1.12c-.55.21-1.02.52-1.4.92-.58.62-.91,1.44-.91,2.32,0,.47.09.9.26,1.3.24.54.64,1.02,1.21,1.42.43.31.97.59,1.69.87.59.24.84.43.93.53.07.07.1.12.11.15.01.03.03.08.03.16,0,.13-.04.21-.13.29-.14.12-.38.18-.66.18-.66.03-1.27-.25-1.62-.48l-.39-.26c-.17-.11-.38-.14-.58-.08-.19.06-.35.21-.42.41l-.62,1.72c-.1.28,0,.59.24.76l.23.16c.36.26.82.47,1.34.62.18.05.37.1.56.13v.98c0,.37.3.66.66.66h1.7c.37,0,.66-.3.66-.66v-1.16c.61-.23,1.14-.59,1.54-1.05.56-.64.87-1.47.87-2.33,0-.46-.07-.88-.21-1.26-.21-.58-.57-1.09-1.09-1.51-.43-.36-.96-.66-1.67-.95-.02-.01-.05-.02-.07-.03-.71-.29-1-.48-1.12-.59-.05-.04-.07-.07-.09-.1,0,0,0-.03,0-.09,0-.04,0-.1.05-.15.09-.09.28-.13.53-.13.32,0,.6.05.88.14.22.07.39.17.53.24l.37.21c.17.1.37.11.55.05.18-.07.33-.21.4-.39l.64-1.7c.11-.3,0-.64-.28-.81l-.27-.16c-.45-.26-.94-.45-1.47-.56v-.93c0-.37-.3-.66-.66-.66h-1.68c-.37,0-.66.3-.66.66ZM43.29,60.51v-.94h.35v.84c0,.34.26.63.6.66.48.05.92.17,1.31.35l-.17.45c-.14-.06-.29-.13-.46-.19-.41-.14-.84-.21-1.3-.21-.62,0-1.1.17-1.45.51-.29.29-.46.68-.46,1.1,0,.25.04.46.14.65.09.19.22.36.41.53.3.26.77.52,1.53.83,0,0,0,0,0,0,.6.24,1.03.48,1.36.76.33.27.56.59.69.94.09.24.13.52.13.82,0,.54-.19,1.05-.54,1.45,0,0,0,0,0,0-.33.38-.8.65-1.36.79-.3.07-.51.34-.51.64v.99h-.37v-.9c0-.34-.26-.63-.6-.66-.31-.03-.61-.08-.9-.17-.29-.08-.55-.19-.76-.31l.16-.46c.61.33,1.34.51,2.03.51.62.01,1.13-.17,1.52-.49.39-.33.6-.77.6-1.3,0-.25-.05-.48-.14-.69-.09-.21-.21-.39-.39-.57-.3-.31-.75-.58-1.39-.83-.62-.24-1.07-.47-1.42-.72-.37-.26-.62-.55-.76-.88-.1-.23-.15-.49-.15-.77,0-.54.19-1.04.55-1.41.31-.33.74-.57,1.25-.69.3-.07.51-.34.51-.64Z"/>
  </g>
</svg>