<?xml version="1.0" encoding="UTF-8"?>
<svg id="_圖層_1" data-name="圖層_1" xmlns="http://www.w3.org/2000/svg" viewBox="0 0 108.33 108.33">
  <defs>
    <style>
      .cls-1 {
        fill: #ffdb00;
      }
    </style>
  </defs>
  <circle class="cls-1" cx="54.17" cy="54.17" r="54.17"/>
  <path d="M38.94,48.74c-1.28,3.99-3.58,7.59-3.67,12.04-.14,6.5-.57,12.99-.88,19.7-2.85-.18-5.49-.29-8.12-.57-.36-.04-.92-.9-.9-1.36.38-8.16.84-16.32,1.28-24.48,0-.16,0-.33.06-.47,3.03-7.51,6.03-15.03,9.17-22.49.29-.69,1.45-1.16,2.31-1.44,3.11-1.03,6.12-2.17,8.46-4.62.39-.41,1.36-.7,1.84-.51,3.94,1.57,7.82,1.52,11.77.04.5-.19,1.46.08,1.84.48,2.48,2.57,5.71,3.6,8.91,4.81.95.36,1.96,1.35,2.35,2.29,2.83,6.73,5.53,13.52,8.23,20.31.29.72.49,1.52.52,2.29.29,7.38.45,14.77.83,22.15.11,2.22-.62,3.09-2.77,2.85-.08,0-.16,0-.24,0-6.14.46-6.17.46-6.33-5.79-.1-3.73-.39-7.49-.09-11.2.42-5.22-1.92-9.51-4.18-14-.06.55-.17,1.1-.17,1.65.07,8.18.11,16.37.28,24.55.04,1.76-.45,2.55-2.26,2.8-3.69.51-7.35,1.68-11.03,1.72-4.07.05-8.18-.75-12.24-1.39-4.5-.71-4.5-.81-4.48-5.34.02-7.23.06-14.46.09-21.69,0-.75,0-1.51,0-2.26-.2-.03-.4-.06-.6-.09ZM53.6,34.72c-.82.5-1.36.7-1.74,1.07-1.63,1.57-2.8,1.19-3.99-.61-1.05-1.58-2.34-3.01-3.56-4.47-.34-.4-.78-.9-1.23-.98-1.75-.31-5.99,2.31-6.68,4.03-2.59,6.4-5.18,12.8-7.74,19.22-.29.72-.5,1.51-.54,2.28-.35,5.55-.65,11.1-.95,16.66-.04.67,0,1.35,0,2,1.35.22,2.37.36,3.38.55,1.85.36,2.78-.13,2.79-2.26.02-3.89.25-7.78.46-11.67.08-1.49.1-3.07.6-4.44,1.49-4.1,3.19-8.13,4.85-12.17.25-.62.75-1.14,1.14-1.7.22.07.43.14.65.21.04.74.11,1.49.11,2.23-.05,9.77-.12,19.55-.12,29.32,0,.74.41,2.05.83,2.13,3.84.78,7.72,1.34,11.76,2v-43.4ZM55.39,78.11c3.32-.55,6.43-1.29,9.57-1.5,2.64-.18,2.99-1.41,2.95-3.66-.17-9.37-.19-18.74-.25-28.11,0-.8.13-1.61.2-2.41,7.04,9.71,7.75,20.76,7.18,32.21,2.4-.24,4.17-.42,6.23-.63-.25-6.85-.48-13.42-.76-19.99-.02-.53-.32-1.06-.52-1.57-2.58-6.4-5.14-12.82-7.81-19.18-.35-.83-1.21-1.68-2.04-2.03-4.6-1.95-4.63-1.9-7.8,2.11-.2.25-.41.48-.61.74q-2.47,3.18-5.79,1.09c-.1-.06-.29.02-.56.05v42.9ZM55.54,32.86c1.23.83,2.2,1.49,3.35,2.27,1.72-2.2,3.36-4.29,5.09-6.51-1.1-.89-2-1.62-3.06-2.49-1.81,2.26-3.48,4.35-5.38,6.73ZM47.88,26.11c-1.08.92-2.02,1.71-3.06,2.59,1.75,2.21,3.35,4.23,5.09,6.42,1.15-.82,2.15-1.53,3.25-2.31-1.82-2.31-3.48-4.41-5.28-6.7ZM27,78.53c1.56.18,2.96.47,4.36.43.58-.02,1.63-.78,1.6-1.13-.05-.66-.63-1.67-1.18-1.81-1.48-.38-3.07-.38-4.78-.55v3.06ZM57.78,27.29h-6.97c1.4,1.68,2.46,2.96,3.67,4.41,1.18-1.58,2.15-2.87,3.3-4.41ZM75.55,78.62c1.62-.14,3.19-.18,4.7-.47.44-.08.95-.86,1.03-1.38.05-.29-.69-.98-1.12-1.02-1-.1-2.03.1-3.04.14-1.63.07-2.31.77-1.57,2.73Z"/>
</svg>