<?xml version="1.0" encoding="UTF-8"?>
<svg id="_圖層_1" data-name="圖層_1" xmlns="http://www.w3.org/2000/svg" viewBox="0 0 108.33 108.33">
  <defs>
    <style>
      .cls-1 {
        fill: #252424;
      }

      .cls-2 {
        fill: #ffdb00;
      }
    </style>
  </defs>
  <circle class="cls-2" cx="54.17" cy="54.17" r="54.17"/>
  <g>
    <path class="cls-1" d="M54.64,40.16c-.97,0-1.98-.3-2.76-.82l-.53-.35-.85,2.37.31.22c.73.52,1.88.9,3.02,1v2.16h2.33v-2.29c2.01-.49,3.34-2.06,3.34-4,0-2.54-1.91-3.65-3.58-4.33-1.98-.82-2.31-1.26-2.31-1.94,0-.64.46-1.32,1.74-1.32s2.07.46,2.41.65l.51.29.88-2.33-.36-.21c-.74-.43-1.56-.69-2.5-.78v-2.08h-2.31v2.22c-1.95.47-3.19,1.93-3.19,3.81,0,2.31,1.83,3.34,3.8,4.12,1.47.6,2.07,1.19,2.07,2.05,0,.94-.81,1.57-2.01,1.57ZM54.95,35.61c-2.28-.89-3.17-1.79-3.17-3.19,0-1.51,1.06-2.63,2.77-2.91l.42-.07v-2.06h.31v2.03l.48.02c.81.03,1.51.18,2.14.48l-.17.45c-.52-.24-1.32-.51-2.39-.51-1.89,0-2.74,1.16-2.74,2.31,0,1.53,1.27,2.18,2.93,2.87,2.1.86,2.96,1.84,2.96,3.4s-1.14,2.8-2.92,3.1l-.42.07v2.12h-.33v-2.12h-.49c-.94-.02-1.94-.27-2.63-.65l.17-.47c.84.43,1.82.67,2.77.67,1.74,0,3.01-1.08,3.01-2.57,0-1.67-1.44-2.47-2.7-2.98Z"/>
    <path class="cls-1" d="M65.86,41.38c1.03-1.81,1.63-3.91,1.63-6.14,0-6.85-5.58-12.43-12.43-12.43s-12.43,5.58-12.43,12.43c0,2.23.59,4.32,1.63,6.14h-14.96l-3.81,10.38,1.79,23.69h54.02l1.56-23.74-4.84-10.32h-12.16ZM44.05,35.25c0-6.07,4.94-11,11-11,2.42,0,4.65.79,6.47,2.11.14.1.28.21.41.31,1.04.83,1.92,1.85,2.6,3,.97,1.64,1.53,3.54,1.53,5.58,0,.38-.02.75-.06,1.12-.11,1.11-.39,2.17-.81,3.16-.84,1.97-2.23,3.66-3.99,4.84-1.76,1.19-3.87,1.88-6.15,1.88-6.07,0-11-4.94-11-11ZM57.72,47.39h14.87v2.55h-36.84v-2.55h16.65s.1.02.15.03c.79.16,1.61.25,2.45.26.02,0,.04,0,.06,0,.91,0,1.8-.1,2.66-.29ZM79.29,73.31H29.26l-1.44-18.99h52.72l-1.25,18.99ZM80.66,52.53l-.02.28H27.7l-.02-.28-.04-.47,3.14-8.54h15.01c.18.2.37.38.56.57.94.92,2.01,1.71,3.2,2.3h-14.81v4.55h38.84v-4.55h-13.02c1.43-.71,2.71-1.69,3.76-2.87h12.33l4.03,8.59-.03.41Z"/>
  </g>
</svg>