<?xml version="1.0" encoding="UTF-8"?>
<svg id="_圖層_1" data-name="圖層_1" xmlns="http://www.w3.org/2000/svg" viewBox="0 0 108.33 108.33">
  <defs>
    <style>
      .cls-1 {
        fill: #ffdb00;
      }
    </style>
  </defs>
  <circle class="cls-1" cx="54.17" cy="54.17" r="54.17"/>
  <g>
    <path d="M47.95,58.79h28.43v-27.78c-.79,0-1.58,0-2.36,0-10.19,0-20.37,0-30.56,0-.47,0-.97.1-1.41-.03-.47-.14-.89-.5-1.33-.76.47-.23.94-.48,1.42-.68.17-.07.4-.01.6-.01,11,0,21.99.04,32.99-.04,1.86-.01,2.43.5,2.4,2.39-.1,8.7-.08,17.4-.02,26.1.01,1.68-.36,2.4-2.23,2.38-8.77-.09-17.54-.03-26.31-.05-.85,0-2.09.34-1.63-1.53Z"/>
    <path d="M75.3,41.44c-.05,5.01-4.19,9.12-9.2,9.13-5.08.01-9.3-4.22-9.25-9.28.05-5.08,4.34-9.25,9.4-9.14,5,.11,9.1,4.31,9.04,9.29ZM65.3,33.92c-3.57.33-6.2,2.82-6.81,6.29-.55,3.13,1.26,6.57,4.23,8.03,2.82,1.39,6.01.95,8.03-1.24-1.01-.97-1.95-2.05-3.06-2.9-1.94-1.49-2.72-3.32-2.42-5.76.18-1.45.03-2.94.03-4.43ZM72.12,46.08c1.73-2.55,2.17-5.08.94-7.77-1.17-2.56-3.15-4.09-5.99-4.52-.96,6.2-.18,8.1,5.05,12.28Z"/>
    <path d="M54.29,46.97c-6.33,0-12.65-.04-18.97.03-1.54.02-2.2,1.14-2.2,2.62,0,1.95.06,3.91-.02,5.86-.02.49-.48.96-.74,1.44l-.67-.24c0-2.8-.2-5.63.07-8.4.17-1.76,1.67-2.8,3.47-2.82,6.47-.06,12.95-.05,19.42.01.46,0,1.24.6,1.3,1.01.23,1.51.15,3.08-1.66,3.66-.95.3-1.99.34-2.99.47-1.27.16-2.56.47-3.81.4-2.26-.14-2.69.98-2.53,2.92.14,1.61.08,3.24-.01,4.85-.02.36-.52.7-.8,1.05-.24-.33-.67-.66-.68-.99-.06-2.56-.1-5.13.03-7.68.02-.47.8-1.2,1.32-1.28,2.66-.43,5.35-.63,8.02-1.05.65-.1,1.23-.7,1.85-1.07-.13-.26-.27-.52-.4-.78Z"/>
    <path d="M45.9,38.41c-.06,3.45-2.85,6.16-6.25,6.07-3.38-.09-6.08-2.96-5.98-6.36.1-3.3,2.86-5.98,6.16-5.96,3.37.01,6.12,2.85,6.06,6.26ZM35.23,38.22c-.05,2.55,1.97,4.66,4.52,4.72,2.46.06,4.62-2.09,4.63-4.62,0-2.44-2.01-4.53-4.43-4.61-2.53-.08-4.67,1.96-4.72,4.51Z"/>
    <path d="M71.11,61.24c3.14-.03,5.68,2.41,5.76,5.53.08,3.17-2.51,5.8-5.71,5.79-3.14,0-5.61-2.49-5.62-5.64,0-3.17,2.41-5.65,5.56-5.68ZM71.25,71.01c2.23-.04,4.12-1.97,4.08-4.18-.04-2.23-1.96-4.07-4.22-4.03-2.24.03-4.13,1.97-4.08,4.18.05,2.23,1.98,4.08,4.22,4.04Z"/>
    <path d="M48.55,66.85c.02-3.17,2.47-5.61,5.63-5.61,3.13,0,5.66,2.49,5.7,5.61.04,3.17-2.59,5.76-5.79,5.71-3.14-.05-5.56-2.54-5.54-5.71ZM58.34,66.87c-.02-2.24-1.92-4.09-4.18-4.08-2.25,0-4.12,1.89-4.11,4.14,0,2.22,1.92,4.1,4.17,4.08,2.25-.02,4.15-1.92,4.12-4.14Z"/>
    <path d="M31.56,66.99c-.03-3.19,2.34-5.68,5.48-5.75,3.22-.07,5.83,2.47,5.83,5.66,0,3.11-2.51,5.63-5.64,5.65-3.14.02-5.64-2.43-5.67-5.57ZM37.33,62.8c-2.28-.07-4.18,1.69-4.27,3.96-.08,2.25,1.73,4.18,3.98,4.25,2.27.07,4.2-1.71,4.28-3.96.09-2.23-1.75-4.18-4-4.25Z"/>
    <path d="M44.54,78.43c-1.55-1.22-2.82-2.84-4.43-3.33-1.85-.56-4.14-.56-5.98.02-1.58.49-2.8,2.14-4.4,3.45.13-3.08,1.8-4.93,4.52-5.15,1.94-.16,3.92-.16,5.86,0,2.78.24,4.42,2.1,4.42,5.01Z"/>
    <path d="M63.59,78.67c.45-3.28,1.92-4.97,4.43-5.21,2.07-.2,4.19-.2,6.26-.01,2.67.25,4.21,2.07,4.31,5.05-1.58-1.27-2.83-2.9-4.42-3.39-1.85-.57-4.13-.57-5.98,0-1.6.5-2.85,2.13-4.61,3.56Z"/>
    <path d="M47.1,78.5c-.09-3.2,1.52-4.89,4.27-5.09,1.88-.14,3.78-.14,5.66,0,2.76.21,4.4,1.97,4.63,5.42-.8-.74-1.38-1.04-1.58-1.51-.66-1.56-1.84-2.31-3.44-2.4-1.61-.09-3.24-.09-4.85-.01-1.68.08-2.91.87-3.57,2.52-.17.44-.74.72-1.12,1.07Z"/>
    <path d="M36.03,59.87c-1.51-.39-1.85-1.95-1.4-5.97.05-.47.56-.88.86-1.32.18.1.36.2.54.31v6.98Z"/>
  </g>
</svg>