<?xml version="1.0" encoding="UTF-8"?>
<svg id="_圖層_1" data-name="圖層_1" xmlns="http://www.w3.org/2000/svg" viewBox="0 0 108.33 108.33">
  <defs>
    <style>
      .cls-1 {
        fill: #252424;
      }

      .cls-2 {
        fill: #ffdb00;
      }
    </style>
  </defs>
  <circle class="cls-2" cx="54.17" cy="54.17" r="54.17"/>
  <g>
    <path class="cls-1" d="M31.73,68.6c0,3.58.84,6.13,2.58,7.8,2.24,2.17,5.73,2.62,9.88,2.62,1.44,0,2.95-.05,4.53-.11,1.76-.06,3.58-.13,5.46-.13,1.46,0,2.89.03,4.27.06,6.58.13,12.27.24,15.49-2.92,1.8-1.77,2.68-4.4,2.68-8.06,0-8.72-5.41-20.28-14.16-23.75-.1-.04-.21-.06-.32-.06h-15.91c-.11,0-.22.02-.32.06-8.47,3.37-14.16,15.38-14.16,24.49ZM46.38,45.79h15.57c7.14,2.94,12.92,12.8,12.92,22.07,0,3.16-.71,5.39-2.16,6.81-2.7,2.65-8.05,2.54-14.24,2.42-1.39-.03-2.83-.06-4.3-.06-1.91,0-3.74.07-5.52.13-5.71.2-10.65.38-13.14-2.02-1.38-1.33-2.05-3.47-2.05-6.55,0-10.49,6.65-20.21,12.92-22.81Z"/>
    <path class="cls-1" d="M47.26,42.47h13.63c.24,0,.47-.1.63-.28,2.53-2.71,4.05-8.23,4.05-12.01,0-.48-.39-.87-.87-.87h-21.26c-.48,0-.87.39-.87.87,0,3.78,1.51,9.31,4.05,12.01.16.18.39.28.63.28ZM63.81,31.05c-.2,3.19-1.42,7.43-3.31,9.68h-12.85c-1.89-2.25-3.11-6.49-3.31-9.68h19.46Z"/>
    <path class="cls-1" d="M47.78,68.58c1.32.82,3.25,1.15,4.34,1.28v1.75c0,.48.39.87.87.87h2.66c.23,0,.45-.09.62-.26.16-.16.25-.39.25-.62v-2.02c2.08-.51,4.16-2.29,4.42-5.02h0c.32-3.43-1.96-4.83-2.42-5.07-.28-.15-.69-.31-1.21-.52-.92-.37-2.17-.87-3.08-1.45-.35-.22-.47-.55-.42-.76.07-.27.43-.33.64-.35,1.56-.11,3.98.69,4.01.69.23.08.49.05.7-.07.21-.12.37-.33.42-.57l.64-2.86c.08-.36-.07-.73-.38-.92-.83-.53-2.38-.8-3.35-.92v-1.55c0-.48-.39-.87-.87-.87h-2.66c-.48,0-.87.39-.87.87v1.98c-3.1.88-4.61,2.99-4.26,5.99.39,3.3,4.75,4.71,5.62,4.95,1.81.52,1.74.82,1.65,1.23-.1.45-1.61.74-3.08.44-1.24-.26-2.35-.84-2.36-.85-.23-.12-.5-.14-.74-.04-.24.1-.42.29-.5.54l-1,3.11c-.12.38.03.8.37,1.01ZM49.77,65.92c.51.21,1.17.44,1.89.59,1.82.37,4.68.22,5.13-1.76.52-2.32-1.68-2.95-2.87-3.29-1.42-.41-4.16-1.66-4.37-3.49-.27-2.32.86-3.68,3.58-4.25.4-.08.69-.44.69-.85v-1.79h.92v1.47c0,.45.35.83.8.87.81.06,2.04.25,2.82.5l-.28,1.27c-.97-.26-2.52-.6-3.76-.51-1.12.08-1.97.71-2.21,1.65-.25.98.22,2.05,1.17,2.66,1.05.67,2.39,1.21,3.38,1.6.44.17.85.34,1.04.44.29.15,1.73,1.04,1.51,3.37-.2,2.15-2.03,3.45-3.65,3.59-.45.04-.8.42-.8.87v1.89s-.91,0-.91,0v-1.67c0-.46-.36-.84-.82-.87-.67-.04-2.45-.24-3.74-.79l.48-1.48Z"/>
  </g>
</svg>