<?xml version="1.0" encoding="UTF-8"?>
<svg id="_圖層_1" data-name="圖層_1" xmlns="http://www.w3.org/2000/svg" viewBox="0 0 108.33 108.33">
  <defs>
    <style>
      .cls-1 {
        fill: #252424;
      }

      .cls-2 {
        fill: #ffdb00;
      }
    </style>
  </defs>
  <circle class="cls-2" cx="54.17" cy="54.17" r="54.17"/>
  <path class="cls-1" d="M43.59,67.38c.69,7.54,7.05,13.47,14.76,13.47,8.17,0,14.83-6.65,14.83-14.83v-7.74c2.36-.92,4.05-3.21,4.05-5.9,0-3.49-2.84-6.33-6.33-6.33s-6.33,2.84-6.33,6.33c0,2.61,1.58,4.85,3.84,5.82v7.82c0,5.54-4.51,10.05-10.05,10.05-5.09,0-9.29-3.8-9.95-8.72,7.26-1.19,12.31-7.56,12.31-16.03v-18.1c0-1.32-1.07-2.39-2.39-2.39-.54,0-1.04.19-1.44.5-.46-.26-.99-.41-1.55-.41-1.73,0-3.14,1.41-3.14,3.14s1.41,3.14,3.14,3.14c.21,0,.41-.02.6-.06v14.2c0,6.75-4.12,11.46-10.02,11.46s-10.02-4.71-10.02-11.46v-14.15c.09,0,.18.01.27.01,1.73,0,3.14-1.41,3.14-3.14s-1.41-3.14-3.14-3.14c-.48,0-.94.11-1.35.31-.38-.25-.83-.39-1.31-.39-1.32,0-2.39,1.07-2.39,2.39v18.1c0,8.53,5.12,14.94,12.47,16.06ZM32.54,33.22c0-.53.43-.96.96-.96s.96.43.96.96v18.1c0,7.59,4.71,12.89,11.46,12.89s11.46-5.3,11.46-12.89v-18.1c0-.53.43-.96.96-.96s.96.43.96.96v18.1c0,8.58-5.62,14.8-13.37,14.8s-13.37-6.23-13.37-14.8v-18.1ZM37.39,34.05c0,.68-.55,1.22-1.22,1.22-.1,0-.19-.01-.27-.03v-2.02c0-.12-.02-.23-.04-.35.1-.03.2-.04.31-.04.67,0,1.22.55,1.22,1.22ZM54.1,34.05c0-.67.55-1.22,1.23-1.22.23,0,.44.07.62.18,0,.07-.02.14-.02.22v1.89c-.18.1-.38.16-.6.16-.68,0-1.23-.55-1.23-1.22ZM69.83,66.03v-13.67c0-.53.43-.95.96-.95s.96.43.96.95v13.67c0,7.38-6.01,13.39-13.39,13.39-6.87,0-12.55-5.21-13.31-11.89.29.02.58.03.87.03.36,0,.71-.02,1.06-.04.73,5.63,5.56,9.99,11.38,9.99,6.33,0,11.48-5.15,11.48-11.48ZM70.89,47.49c2.7,0,4.9,2.2,4.9,4.9,0,1.88-1.06,3.51-2.61,4.33v-4.36c0-1.32-1.07-2.39-2.39-2.39s-2.39,1.07-2.39,2.39v4.24c-1.44-.85-2.4-2.42-2.4-4.21,0-2.7,2.2-4.9,4.9-4.9Z"/>
</svg>