<?xml version="1.0" encoding="UTF-8"?>
<svg id="_圖層_1" data-name="圖層_1" xmlns="http://www.w3.org/2000/svg" viewBox="0 0 108.33 108.33">
  <defs>
    <style>
      .cls-1 {
        fill: #ffdb00;
      }

      .cls-2 {
        fill: #040000;
      }
    </style>
  </defs>
  <circle class="cls-1" cx="54.17" cy="54.17" r="54.17"/>
  <path class="cls-2" d="M37.14,79.81c-1.49,0-2.89-.79-3.66-2.07l-.7-1.17c-.93-1.55-2.63-2.51-4.43-2.51s-3.16-1.38-3.18-3.08c-.01-.84.31-1.63.9-2.23.59-.6,1.38-.93,2.22-.93h4.82c.16,0,.29-.11.32-.26l6.12-28.57c.42-1.95,2.17-3.37,4.17-3.37h4.14c.09,0,.18-.04.24-.11.06-.07.09-.16.09-.25-.02-.18-.03-.36-.03-.55,0-2.81,1.91-5.21,4.64-5.84.15-.04.26-.17.26-.33-.06-2.04.13-4.09.59-6.09.08-.37.42-.64.8-.64.06,0,.12,0,.18.02.44.1.72.54.62.98-.42,1.85-.61,3.75-.55,5.65,0,.16.13.3.29.32,2.95.41,5.17,2.96,5.17,5.93,0,.18,0,.37-.03.55,0,.09.02.18.09.25.06.07.15.11.24.11h4.14c2,0,3.76,1.42,4.17,3.37l6.12,28.57c.03.15.17.26.32.26h4.76c1.73,0,3.16,1.38,3.18,3.08.01.84-.31,1.63-.9,2.23-.59.6-1.38.93-2.22.93-1.84,0-3.57.98-4.52,2.56l-.67,1.12c-.77,1.28-2.17,2.07-3.66,2.07h-34.04ZM28.29,69.46c-.4,0-.77.16-1.05.44-.28.28-.43.66-.43,1.06.01.81.7,1.46,1.54,1.46,2.38,0,4.61,1.27,5.84,3.3l.7,1.17c.47.79,1.34,1.28,2.26,1.28h34.04c.92,0,1.78-.49,2.26-1.28l.67-1.12c1.24-2.07,3.51-3.36,5.93-3.36.4,0,.77-.16,1.05-.44.28-.28.43-.66.43-1.06,0-.81-.7-1.46-1.54-1.46H28.29ZM36.45,62.56c-.16,0-.29.11-.32.26l-.99,4.6c-.02.1,0,.2.07.28.06.08.16.12.26.12h37.41c.1,0,.19-.05.26-.12.06-.08.09-.18.07-.28l-.99-4.6c-.03-.15-.17-.26-.32-.26h-35.44ZM40.39,44.15c-.16,0-.29.11-.32.26l-3.45,16.1c-.02.1,0,.2.07.28.06.08.16.12.26.12h34.45c.1,0,.19-.05.26-.12.06-.08.09-.18.07-.28l-3.45-16.1c-.03-.15-.17-.26-.32-.26h-2.27c-1.13,0-2.06.92-2.06,2.06v1.15c0,2.04-1.66,3.69-3.69,3.69s-3.69-1.66-3.69-3.69v-1.15c0-1.13-.92-2.06-2.06-2.06s-2.06.92-2.06,2.06v5.75c0,2.04-1.66,3.69-3.69,3.69s-3.69-1.66-3.69-3.69v-5.75c0-1.13-.92-2.06-2.06-2.06h-2.27ZM43.73,37.25c-1.23,0-2.31.87-2.57,2.08l-.6,2.78c-.02.1,0,.2.07.28.06.08.16.12.26.12h1.78c2.04,0,3.69,1.66,3.69,3.69v5.75c0,1.13.92,2.06,2.06,2.06s2.06-.92,2.06-2.06v-5.75c0-2.04,1.66-3.69,3.69-3.69s3.69,1.66,3.69,3.69v1.15c0,1.13.92,2.06,2.06,2.06s2.06-.92,2.06-2.06v-1.15c0-2.04,1.66-3.69,3.69-3.69h1.78c.1,0,.19-.05.26-.12.06-.08.09-.18.07-.28l-.6-2.78c-.26-1.2-1.34-2.08-2.57-2.08h-20.87ZM53.98,30.36c-1.23.05-2.38.62-3.16,1.57-.78.94-1.13,2.19-.96,3.41.02.16.16.28.33.28h7.97c.16,0,.3-.12.33-.28.18-1.25-.19-2.52-1.02-3.47-.83-.96-2.02-1.51-3.27-1.51-.07,0-.14,0-.2,0Z"/>
</svg>