<?xml version="1.0" encoding="UTF-8"?>
<svg id="_圖層_1" data-name="圖層_1" xmlns="http://www.w3.org/2000/svg" viewBox="0 0 108.33 108.33">
  <defs>
    <style>
      .cls-1 {
        fill: #ffdb00;
      }
    </style>
  </defs>
  <circle class="cls-1" cx="54.17" cy="54.17" r="54.17"/>
  <g>
    <path d="M85.03,75.53c-.22,0-.46-.03-.68-.05-.23-.03-.45-.05-.64-.05-12.83.02-25.65.02-38.48.02h-20.27c-.13,0-.27.01-.41.02-.12,0-.25.02-.37.02-.15,0-.26-.02-.35-.05-.37-.15-.7-.38-1.06-.62-.06-.04-.12-.08-.18-.12.07-.06.15-.13.22-.19.3-.27.62-.55.89-.56.89-.06,1.79-.07,2.7-.07l3.39.02c.13,0,.24-.11.24-.24v-21.17c0-.11-.07-.2-.17-.23-3.55-1.03-5.13-3.36-5.31-7.79-.16-3.91.76-7.36,2.96-11.17,1.65-2.86,3.37-3.87,6.57-3.87h.27c5.36.1,11.07.14,17.96.14,5.01,0,10.01-.02,15.02-.05l6.6-.03c1.29,0,2.16.25,2.65,1.49.22.57.54,1.11.91,1.57,2.8,3.44,3.9,7.64,3.48,13.21-.23,3.04-1.56,4.99-4.19,6.15-.51.23-1.24.87-1.24,1.41-.06,5.39-.05,10.79-.05,16.34v3.99c0,.13.11.24.24.24h4.55c1.16,0,2.32,0,3.48.02h.01c.22,0,.41-.01.61-.03.19-.02.4-.03.59-.03.69,0,.94.21.96.78,0,.33-.06.56-.19.7-.13.14-.35.2-.69.2ZM48.59,56.88c.39,0,.67.09.85.27.22.22.32.6.31,1.23-.02,1.92-.02,3.84-.01,5.76v9.45c0,.13.11.24.24.24h23.72c.13,0,.24-.11.24-.24v-3.64c0-5.6,0-11.09-.03-16.58,0-.43-.33-1-.73-1.25-.95-.6-1.92-1.16-2.94-1.74l-1.15-.66s-.08-.03-.12-.03c-.07,0-.13.03-.18.08-1.39,1.61-3.09,2.44-5.07,2.45-2.01,0-3.69-.87-5.32-2.75-.05-.05-.11-.08-.18-.08h0c-.07,0-.14.03-.18.09-1.54,1.87-3.21,2.74-5.26,2.74-2.08-.02-3.79-.91-5.3-2.73-.04-.05-.11-.09-.18-.09h0c-.07,0-.14.03-.18.09-1.56,1.86-3.24,2.73-5.28,2.74-2.51,0-4.16-1.36-5.1-2.5-.05-.06-.11-.09-.18-.09-.04,0-.09.01-.13.04l-4.56,2.89c-.07.04-.11.12-.11.2v20.8c0,.13.11.24.24.24h4.04c.13,0,.24-.11.24-.24v-5.38c0-3.28,0-6.55-.01-9.83,0-.62.09-1,.3-1.21.18-.18.46-.27.86-.27h11.16ZM38.12,58.54c-.13,0-.24.11-.24.24v14.79c0,.13.11.24.24.24h9.7c.13,0,.24-.11.24-.24v-14.79c0-.13-.11-.24-.24-.24h-9.7ZM59.4,39.56c-.13,0-.24.11-.24.24,0,.74-.02,1.47-.03,2.2-.04,1.63-.08,3.32.09,4.95.21,2.08,2.24,3.77,4.53,3.77,1.99-.01,4.27-1.41,4.51-3.65.18-1.67.14-3.39.1-5.05-.02-.74-.04-1.48-.04-2.22,0-.13-.11-.24-.24-.24h-8.68ZM26.44,39.59c-.13,0-.24.11-.24.24,0,.72-.01,1.43-.03,2.14-.03,1.62-.07,3.16.08,4.71.21,2.23,2.28,4.04,4.61,4.04,2.46-.06,4.45-1.84,4.64-4.05.14-1.56.1-3.1.07-4.72-.01-.7-.03-1.41-.03-2.12,0-.13-.11-.24-.24-.24h-8.87ZM37.44,39.56c-.13,0-.24.11-.24.24,0,.73,0,1.44-.02,2.15-.02,1.59-.04,3.1.05,4.61.13,2.2,2.07,4.03,4.4,4.15h.22c2.02,0,4.33-1.51,4.53-3.76.15-1.63.12-3.24.08-4.94-.01-.73-.03-1.46-.03-2.2,0-.13-.11-.24-.24-.24h-8.76ZM70.25,39.58c-.13,0-.24.11-.24.24,0,0,0,2.99,0,3.44-.01,1.04-.02,2.12.05,3.18.15,2.29,2.18,4.2,4.53,4.27h0c2.41,0,4.49-1.78,4.67-3.88.13-1.6.1-3.17.07-4.84-.01-.72-.03-1.45-.03-2.18,0-.13-.11-.24-.24-.24h-8.8ZM48.39,39.58c-.13,0-.24.11-.24.24,0,.73-.02,1.46-.03,2.17-.04,1.66-.07,3.24.08,4.83.21,2.15,2.26,3.89,4.57,3.9,2.41-.04,4.4-1.81,4.6-4.03.14-1.55.11-3.09.08-4.72-.02-.71-.03-1.42-.03-2.15,0-.13-.11-.24-.24-.24h-8.8ZM34.73,31.1c-1.1,0-2.16,0-3.23.04-.44.01-.97.44-1.22.85-.79,1.27-1.54,2.57-2.38,4.01l-.91,1.57c-.04.07-.04.16,0,.24s.12.12.21.12h3.89c1.28,0,2.51,0,3.74-.03.44,0,1.09-.34,1.27-.76.58-1.34,1.11-2.71,1.67-4.17l.59-1.53c.03-.07.02-.16-.02-.22-.04-.06-.12-.1-.2-.1h-3.4ZM67.45,31.14c-.08,0-.15.04-.2.1-.04.07-.05.15-.02.22l.63,1.64c.5,1.3.97,2.53,1.5,3.7.21.48.87,1.06,1.39,1.07,1.21.04,2.42.06,3.68.06h3.95c.09-.01.16-.06.21-.13s.04-.16,0-.24l-.83-1.41c-.91-1.56-1.72-2.94-2.55-4.33-.06-.11-.41-.66-.81-.66-1.29-.02-2.58-.03-3.91-.03h-3.05ZM49.8,31.11c-.11,0-.21.08-.23.19l-1.23,6.27c-.01.07,0,.14.05.2.05.06.11.09.18.09h8.43c.07,0,.14-.03.18-.09.04-.05.06-.13.05-.19l-.28-1.49c-.26-1.37-.5-2.67-.79-3.95-.09-.4-.65-.96-1.09-.98-.84-.04-1.68-.05-2.53-.05h-2.75ZM44.36,31.08c-1.07,0-2.12,0-3.16.04-.45.01-1.11.34-1.29.75-.58,1.33-1.1,2.7-1.66,4.13l-.59,1.52c-.03.07-.02.16.02.22.04.06.12.1.2.1h8.59c.11,0,.21-.08.23-.19l1.22-6.25c.01-.07,0-.16-.05-.21-.04-.05-.11-.1-.18-.1h-3.35ZM57.88,31.11c-.07,0-.14.03-.18.09-.04.05-.06.13-.05.19l1.2,6.21c.02.11.12.19.23.19h8.58c.08,0,.15-.04.2-.1.04-.07.05-.15.02-.22l-.58-1.49c-.54-1.39-1.04-2.7-1.6-3.99-.18-.41-.77-.83-1.2-.85-1.08-.03-2.16-.04-3.27-.04h-3.35Z"/>
    <path d="M68.71,70.21c-.82-.04-1.63-.05-2.45-.05-.59,0-2.93.02-3.51.02h-3.94c-.88,0-1.76,0-2.64,0h0c-.51,0-.83-.1-1.03-.29-.2-.2-.3-.54-.3-1.03.02-3.54.03-7.08,0-10.62,0-.49.09-.84.3-1.05.22-.22.59-.33,1.15-.33,2.2,0,4.39.02,6.57.02,2.05,0,4.11,0,6.16-.02h0c.59,0,.95.1,1.17.33.23.23.33.61.32,1.2-.05,3.18-.08,6.61,0,10.11.02.68-.09,1.12-.35,1.38-.23.24-.62.35-1.21.35h-.25ZM56.71,58.54c-.13,0-.24.11-.24.24v9.54c0,.13.11.24.24.24h11.94c.13,0,.24-.11.24-.24v-9.54c0-.13-.11-.24-.24-.24h-11.94Z"/>
    <path d="M46.05,64.93c-.26-.3-.53-.62-.54-.87,0-.27.26-.59.52-.9.07-.09.14-.17.2-.25l1.16,1.12-1.14,1.15c-.07-.08-.14-.16-.21-.24Z"/>
  </g>
</svg>