<?xml version="1.0" encoding="UTF-8"?>
<svg id="_圖層_1" data-name="圖層_1" xmlns="http://www.w3.org/2000/svg" viewBox="0 0 108.33 108.33">
  <defs>
    <style>
      .cls-1 {
        fill: #ffdb00;
      }
    </style>
  </defs>
  <circle class="cls-1" cx="54.17" cy="54.17" r="54.17"/>
  <g>
    <path d="M48.65,70.31c-1.91,0-2.7-.59-3.24-2.42l-10.1-33.85c-.54-1.8-1.52-2.54-3.38-2.54,0,0-5.5,0-6.46,0-.58,0-.98-.29-1.06-.77-.08-.52.09-.87.55-1.08.09-.04.27-.09.58-.09h4.05c.94-.01,1.87,0,2.81,0,2.16.02,3.97,1.38,4.63,3.45l.07.23c.41,1.3.82,2.6,1.16,3.92.22.84.67,1.17,1.55,1.17,8.41-.01,16.81-.02,25.2-.02h12.6c1.06,0,1.94.4,2.46,1.11.52.7.64,1.64.34,2.64l-5.37,17.96c-.09.32-.19.65-.29.96-.53,1.65-1.76,2.57-3.46,2.58-1.5,0-2.99,0-4.49,0h-19.34c-.13,0-.27.01-.43.03l-.25.02c-.14.01-.27.09-.35.2s-.1.27-.06.4l.29.97c.21.7.42,1.37.59,2.05.19.77.64,1.11,1.45,1.11,1.71-.01,3.39-.02,5.07-.02,0,0,16.07,0,19.74.01.31,0,.66.01.92.12.45.19.63.54.53,1.05-.09.47-.36.72-.85.77-.1.01-.19.01-.29.01h-25.18ZM39.89,40.27c-.15,0-.28.07-.38.18-.09.11-.12.27-.09.41l.07.27c.04.17.07.29.11.42l1.11,3.73c1.53,5.12,3.06,10.23,4.56,15.36.28.97,1,.97,1.42.97h24.18c1.34,0,1.74-.3,2.12-1.57l5.39-18.08c.2-.66.31-1.03.07-1.35s-.62-.33-1.32-.33h-37.25Z"/>
    <path d="M70.19,82.15c-1.32-.02-2.54-.53-3.42-1.44-.89-.91-1.36-2.14-1.34-3.47.04-2.58,2.19-4.68,4.79-4.68,2.69.03,4.81,2.19,4.78,4.81-.03,2.69-2.11,4.79-4.73,4.79h-.07ZM70.18,74.52c-1.55.02-2.81,1.31-2.8,2.87s1.27,2.79,2.85,2.79c1.53,0,2.78-1.24,2.8-2.75,0-.78-.29-1.52-.84-2.07-.53-.54-1.24-.83-1.98-.83h-.04Z"/>
    <path d="M47.71,82.14c-2.63-.06-4.74-2.23-4.7-4.83.04-2.62,2.2-4.76,4.83-4.76,1.38.03,2.57.57,3.45,1.5.89.93,1.36,2.14,1.33,3.39-.07,2.64-2.17,4.71-4.79,4.71h-.11ZM47.77,74.51c-1.53.04-2.81,1.36-2.79,2.88.02,1.53,1.3,2.78,2.84,2.78.79,0,1.5-.31,2.02-.85.52-.54.81-1.25.79-2.01-.02-1.52-1.31-2.81-2.8-2.81,0,0-.07,0-.07,0Z"/>
    <path d="M59.05,58.96c-.9,0-.98-.98-.98-1.27,0-.61,0-1.22,0-1.83v-11.31c0-.3,0-.55.04-.8.09-.51.43-.8.94-.8.55.02.88.33.96.84.03.22.03.45.03.68v13.2c0,.48-.15,1.29-.98,1.3h-.01Z"/>
    <path d="M51.25,58.96c-.5,0-.89-.38-.98-.98-.22-1.42-.43-2.85-.65-4.28l-1.4-9.44c-.11-.71.17-1.2.73-1.31.09-.02.17-.02.25-.02.68,0,.87.61.93.97.52,3.33,1.02,6.67,1.52,10l.39,2.59.19,1.36c-.01.59-.35,1.04-.88,1.09h-.1Z"/>
    <path d="M67.08,58.9c-.29,0-.69-.16-1.06-.42-.04-.05-.09-.26-.12-.36-.01-.05-.03-.11-.04-.16l2-13.45c.03-.23.07-.46.12-.68.09-.4.33-.88.94-.88.07,0,.13,0,.2.02.55.09.87.57.78,1.19l-1.31,8.77c-.25,1.68-.49,3.35-.73,5.03-.09.6-.33.92-.73.95h-.05Z"/>
  </g>
</svg>