<?xml version="1.0" encoding="UTF-8"?>
<svg id="_圖層_1" data-name="圖層_1" xmlns="http://www.w3.org/2000/svg" viewBox="0 0 108.33 108.33">
  <defs>
    <style>
      .cls-1 {
        fill: #ffda00;
      }

      .cls-2 {
        fill: #040000;
      }
    </style>
  </defs>
  <circle class="cls-1" cx="54.17" cy="54.17" r="54.17"/>
  <g>
    <path class="cls-2" d="M54.21,71.31c8.85,0,16.1-7.24,16.1-16.1s-7.24-16.1-16.1-16.1-16.1,7.24-16.1,16.1,7.24,16.1,16.1,16.1ZM54.21,41.13c7.73,0,14.09,6.36,14.09,14.09s-6.36,14.09-14.09,14.09-14.09-6.36-14.09-14.09,6.36-14.09,14.09-14.09Z"/>
    <path class="cls-2" d="M54.21,66c5.96,0,10.87-4.83,10.87-10.87s-4.83-10.87-10.87-10.87-10.87,4.83-10.87,10.87,4.91,10.87,10.87,10.87ZM54.21,46.36c4.91,0,8.85,3.94,8.85,8.85s-3.94,8.85-8.85,8.85-8.85-3.94-8.85-8.85,3.94-8.85,8.85-8.85Z"/>
    <path class="cls-2" d="M77.39,76.3h-3.06v-32.36c2.33-.64,4.02-3.46,4.02-6.92,0-3.94-2.17-7.08-5.07-7.08s-5.07,3.06-5.07,7.08c0,3.46,1.69,6.28,4.02,6.92v32.36h-36.14v-33.16h3.06c.56,0,1.05-.48,1.05-1.05v-11.03c0-.56-.48-1.05-1.05-1.05s-1.05.48-1.05,1.05v10.06h-2.01v-10.06c0-.56-.48-1.05-1.05-1.05s-1.05.48-1.05,1.05v10.06h-1.93v-10.06c0-.56-.48-1.05-1.05-1.05s-1.05.48-1.05,1.05v11.11c0,.56.48,1.05,1.05,1.05h3.06v33.08h-3.06c-.56,0-1.05.48-1.05,1.05s.48,1.05,1.05,1.05h46.28c.56,0,1.05-.48,1.05-1.05s-.48-1.05-.97-1.05ZM70.3,37.1c0-2.74,1.37-5.07,3.06-5.07s3.06,2.33,3.06,5.07-1.37,5.07-3.06,5.07-3.06-2.41-3.06-5.07Z"/>
  </g>
</svg>