<?xml version="1.0" encoding="UTF-8"?>
<svg id="_圖層_1" data-name="圖層_1" xmlns="http://www.w3.org/2000/svg" viewBox="0 0 108.33 108.33">
  <defs>
    <style>
      .cls-1 {
        fill: #252424;
      }

      .cls-2 {
        fill: #ffdb00;
      }
    </style>
  </defs>
  <circle class="cls-2" cx="54.17" cy="54.17" r="54.17"/>
  <g>
    <g>
      <polygon class="cls-1" points="61.22 35.57 61.22 33.81 33.01 33.81 31.25 33.81 31.25 35.57 31.25 60.25 33.01 60.25 33.01 35.57 61.22 35.57"/>
      <rect class="cls-1" x="27.72" y="67.3" width="28.21" height="1.76"/>
      <path class="cls-1" d="M58.08,36.54c-.43-.22-.96-.04-1.18.39l-4.5,9-2.74-5.47c-.16-.31-.49-.5-.83-.49-.35.02-.66.24-.78.57l-4.68,12.49-2.57-3.86c-.18-.27-.5-.43-.82-.39-.33.03-.61.25-.73.55l-3.53,8.81c-.18.45.04.96.49,1.14.11.04.22.06.33.06.35,0,.68-.21.82-.55l2.9-7.26,2.6,3.89c.18.28.5.42.83.39.33-.04.61-.26.72-.57l4.58-12.21,2.62,5.24c.3.6,1.28.6,1.58,0l5.29-10.58c.22-.44.04-.96-.39-1.18Z"/>
    </g>
    <g>
      <path class="cls-1" d="M27.72,64.73c-.53,0-.96-.43-.96-.95V30.28c0-.53.43-.95.96-.95h42.31c.53,0,.95.43.95.95v.96H29.49c-.45,0-.81.36-.81.81v29.97c0,.45.36.81.81.81h25.64v1.91h-27.4Z"/>
      <path class="cls-1" d="M70.03,82.36c-2.86,0-5.3-2.36-6.21-6.01l-1.51-7.56c-.07-.33-.33-.58-.66-.64-2.94-.5-3.15-2.65-3.15-6.14.54-6.5,2.08-10.15,5.47-12.94.17-.14.28-.34.29-.56.02-.22-.06-.44-.2-.6-1.31-1.48-2.04-3.36-2.04-5.29,0-4.42,3.59-8.01,8.01-8.01s8.01,3.59,8.01,8.01c0,1.93-.73,3.8-2.04,5.29-.15.16-.22.38-.2.6.02.22.12.42.29.56,3.4,2.8,4.93,6.4,5.47,12.87,0,3.51-.2,5.72-3.14,6.22-.33.06-.59.31-.66.64l-1.5,7.51c-.91,3.67-3.36,6.06-6.23,6.06ZM66.28,49.76c-.24,0-.47.1-.63.3l-.15.19c-.05.06-.1.12-.17.18-2.68,2.15-4.35,4.75-4.93,11.67,0,3.37,0,4.25,2.57,4.25.45,0,.85.32.94.77l1.76,8.82c.69,2.76,2.4,4.52,4.35,4.52s3.67-1.79,4.37-4.57l1.75-8.77c.09-.44.48-.77.94-.77,2.57,0,2.57-.83,2.57-4.33-.57-6.84-2.31-9.5-4.93-11.59-.06-.05-.12-.11-.16-.17-.18-.25-.56-.46-.88-.46-.09,0-.17.02-.24.05-.32.15-.66.27-1,.38-.18.06-.33.17-.43.32l-1.48,2.21c-.15.22-.18.5-.08.75l2.18,5.46-2.61,3.48-2.61-3.48,2.18-5.46c.1-.25.07-.53-.08-.75l-1.48-2.21c-.1-.15-.25-.27-.43-.32-.34-.11-.68-.22-1-.38-.11-.05-.23-.08-.35-.08ZM70.03,36.53c-3.36,0-6.1,2.73-6.1,6.1s2.73,6.1,6.1,6.1,6.1-2.73,6.1-6.1-2.73-6.1-6.1-6.1Z"/>
      <path class="cls-1" d="M32.05,59.44v-24.83h28.35v.15h-27.4c-.45,0-.81.36-.81.81v23.87h-.15Z"/>
      <rect class="cls-1" x="28.53" y="68.11" width="26.59" height=".15"/>
      <path class="cls-1" d="M36.51,58.55l3.48-8.91,2.7,3.84c.15.23.4.36.67.36.03,0,.06,0,.09,0,.3-.03.56-.23.66-.52l4.68-12.49,2.87,5.47c.14.27.42.45.72.45s.59-.17.72-.45l4.5-9-5.16,10.64-2.75-5.24c-.14-.27-.42-.45-.72-.45h-.04c-.32.02-.6.22-.71.52l-4.58,12.21-2.73-3.88c-.15-.23-.4-.36-.67-.36-.03,0-.06,0-.08,0-.3.03-.56.23-.67.5l-2.9,7.26-.07.05s-.01,0-.03,0Z"/>
    </g>
  </g>
</svg>