<?xml version="1.0" encoding="UTF-8"?>
<svg id="_圖層_1" data-name="圖層_1" xmlns="http://www.w3.org/2000/svg" viewBox="0 0 108.33 108.33">
  <defs>
    <style>
      .cls-1 {
        fill: #252424;
      }

      .cls-2 {
        fill: #ffdb00;
      }
    </style>
  </defs>
  <circle class="cls-2" cx="54.17" cy="54.17" r="54.17"/>
  <g>
    <path class="cls-1" d="M72.66,38.96H26.13c-.9,0-1.62.73-1.62,1.62v27.17c0,.9.73,1.62,1.62,1.62h56.07c.9,0,1.62-.73,1.62-1.62v-27.17c0-.9-.73-1.62-1.62-1.62h-9.55ZM82.2,67.75H26.13v-27.17h56.07v27.17Z"/>
    <path class="cls-1" d="M64.44,43.39h-5.49c-.23-.13-.46-.25-.69-.37-2.61-1.24-5.58-1.24-8.18,0-.24.11-.47.24-.7.37h-15.04c0,3.21-2.6,5.82-5.82,5.82v9.92c3.21,0,5.82,2.6,5.82,5.82h15.04c.23.13.46.25.7.37,1.3.62,2.68.93,4.09.93s2.79-.31,4.09-.93c.24-.11.47-.24.7-.37h15.04c0-3.21,2.6-5.82,5.82-5.82v-9.92c-3.21,0-5.82-2.6-5.82-5.82h-9.55ZM43.89,63.32h-8.1c-.63-2.8-2.84-5.01-5.64-5.64v-7.04c2.8-.63,5.01-2.84,5.64-5.64h11.46c-2.31,2.25-3.69,5.57-3.69,9.16s1.39,6.9,3.69,9.16h-3.36ZM57.91,64.58c-2.38,1.13-5.1,1.13-7.48,0-3.68-1.75-6.06-5.84-6.06-10.41s2.38-8.66,6.06-10.41c1.19-.57,2.45-.85,3.74-.85s2.55.29,3.74.85c3.68,1.75,6.06,5.84,6.06,10.41s-2.38,8.66-6.06,10.41ZM78.18,50.65v7.04c-2.8.63-5.01,2.84-5.64,5.64h-11.46c2.31-2.25,3.69-5.56,3.69-9.16s-1.39-6.9-3.69-9.16h11.46c.63,2.8,2.84,5.01,5.64,5.64Z"/>
    <path class="cls-1" d="M57.21,53.62c-.52-.43-1.18-.8-2.05-1.16-.81-.33-1.33-.61-1.59-.84-.14-.12-.19-.2-.21-.26-.03-.06-.05-.14-.06-.3,0-.11.03-.33.2-.5.2-.19.53-.29.98-.29.45,0,.86.06,1.26.2.31.1.55.23.75.35l.47.27c.1.06.23.07.34.03.11-.04.2-.13.24-.24l.82-2.16c.07-.19,0-.39-.17-.49l-.34-.2c-.62-.36-1.32-.61-2.09-.72v-1.55c0-.22-.18-.41-.41-.41h-2.13c-.22,0-.41.18-.41.41v1.74c-.75.23-1.4.63-1.89,1.16-.67.71-1.03,1.65-1.03,2.65,0,.53.1,1.03.29,1.48.27.62.74,1.17,1.39,1.63.52.37,1.18.71,2.06,1.06.78.32,1.16.6,1.34.77.11.11.18.21.23.33.05.12.07.24.07.39,0,.29-.11.51-.32.7-.26.21-.65.33-1.11.33h0c-.8,0-1.65-.26-2.3-.69l-.5-.33c-.1-.07-.23-.09-.35-.05-.12.04-.21.13-.25.25l-.79,2.19c-.06.17,0,.36.15.47l.29.21c.42.3.96.55,1.58.73.33.1.68.17,1.02.22v1.62c0,.22.18.41.41.41h2.16c.22,0,.41-.18.41-.41v-1.79c.83-.26,1.54-.71,2.06-1.31h0c.64-.74,1-1.69,1-2.67,0-.53-.08-1.02-.24-1.46-.24-.66-.66-1.24-1.25-1.73ZM57.1,58.95c-.48.55-1.16.95-1.95,1.14-.18.04-.31.21-.31.39v1.7h-1.35v-1.58c0-.21-.16-.39-.37-.4-.41-.04-.83-.11-1.23-.23-.54-.16-.99-.36-1.33-.61l-.04-.03.51-1.42.06.04c.77.52,1.8.83,2.75.83h0c.65,0,1.23-.19,1.63-.52.4-.34.61-.78.61-1.32,0-.26-.05-.49-.14-.7-.09-.21-.22-.4-.4-.58-.34-.34-.88-.66-1.61-.96-.82-.32-1.42-.63-1.89-.96-.54-.38-.9-.81-1.12-1.3-.15-.34-.23-.73-.23-1.15,0-.79.29-1.54.81-2.09.45-.48,1.08-.83,1.81-1.01.18-.04.31-.21.31-.39v-1.64h1.32v1.5c0,.21.16.38.37.4.79.08,1.51.3,2.12.66l.04.03-.53,1.39-.06-.04c-.24-.14-.52-.28-.9-.41-.48-.16-.97-.24-1.51-.24-.67,0-1.18.18-1.54.53-.29.28-.45.66-.45,1.08,0,.25.04.45.13.65.09.19.22.36.41.52.34.3.9.6,1.82.98.8.33,1.38.65,1.84,1.03.48.39.82.86,1.01,1.38.13.35.19.75.19,1.19,0,.79-.28,1.55-.8,2.14Z"/>
  </g>
</svg>