<?xml version="1.0" encoding="UTF-8"?>
<svg id="_圖層_1" data-name="圖層_1" xmlns="http://www.w3.org/2000/svg" viewBox="0 0 108.33 108.33">
  <defs>
    <style>
      .cls-1 {
        fill: #252424;
      }

      .cls-2 {
        fill: #ffdb00;
      }
    </style>
  </defs>
  <circle class="cls-2" cx="54.17" cy="54.17" r="54.17"/>
  <path class="cls-1" d="M52.38,82.25c-.24,0-.46-.1-.61-.29-6.65-8.19-14.7-8.61-16.25-8.61h-.21c-.41,0-.74-.27-.81-.64-.07-.39.16-.77.53-.89l9.34-2.95c.16-.05.29-.19.32-.36.19-.92.37-1.94.54-3.01.51-3.05,1.15-6.84,2.74-10.73.09-.23,0-.49-.22-.6l-17.83-9.26c-.32-.17-.48-.53-.4-.88.09-.35.39-.6.75-.6l6.94-.07c.22,0,.41-.16.46-.38.05-.23.11-.41.19-.57l.89-1.7c.26-.51.71-.89,1.26-1.06.21-.07.43-.1.65-.1.34,0,.68.08.99.25,1.03.53,1.44,1.77.95,2.82-.07.15-.06.32.03.46.09.14.24.22.4.22,0,0,3.26-.03,3.26-.03.18,0,.34-.1.42-.26l.83-1.61c.27-.51.71-.89,1.26-1.06.21-.07.43-.1.65-.1.35,0,.68.08.99.25.51.27.89.71,1.06,1.26.09.29.12.6.08.92-.02.14.02.27.12.38.09.1.22.16.36.16,0,0,1.38-.01,1.38-.01.17,0,.33-.09.41-.24,5.29-9.47,12.11-16.88,15.52-16.88.31,0,.58.06.82.19,2.79,1.45.75,11.33-4.65,22.5-.08.15-.06.33.04.47l.55.8c.07.11.19.18.32.2.02,0,.05,0,.07,0,.1,0,.21-.03.29-.1.21-.17.44-.29.67-.36.21-.07.43-.1.65-.1.35,0,.68.08.99.25.51.26.89.71,1.06,1.26.17.55.12,1.13-.14,1.65l-.73,1.4c-.08.16-.07.34.03.49l1.86,2.7c.09.13.23.21.39.21h0c.16,0,.3-.08.39-.2.28-.41.66-.7,1.11-.84.21-.07.43-.1.65-.1.34,0,.68.08.99.25.51.27.89.71,1.06,1.26.18.55.12,1.13-.14,1.64l-.89,1.7c-.06.13-.14.24-.23.36-.13.16-.14.39-.02.57l4.17,6.06c.2.3.18.69-.06.96-.15.17-.36.27-.59.27-.12,0-.25-.03-.36-.09l-17.83-9.26c-.07-.04-.15-.05-.22-.05-.16,0-.31.08-.4.22-2.59,4.14-5.67,7.49-7.93,9.95l-1.03,1.13c-.11.13-.15.3-.1.46l2.94,9.31c.11.36-.04.75-.38.92-.11.06-.24.09-.37.09ZM35.33,44.96c-.22,0-.41.15-.46.37-.05.21.05.43.24.53l14.4,7.48c.37.19.52.64.35,1.02-1.86,4.08-2.51,7.98-3.09,11.41-.23,1.39-.45,2.68-.72,3.82-.07.27-.26.48-.52.57l-4.84,1.53c-.2.06-.33.25-.33.46,0,.21.14.39.34.45,3.11.9,6,2.45,8.59,4.62.09.07.2.11.3.11.09,0,.18-.03.27-.08.18-.12.25-.34.19-.54l-1.58-5c-.09-.27-.02-.55.16-.76.47-.52.98-1.09,1.53-1.68,2.55-2.78,5.72-6.23,8.34-10.69.14-.24.4-.38.67-.38.13,0,.25.03.36.09l14.4,7.48c.07.04.14.05.22.05.13,0,.26-.06.36-.16.15-.16.16-.4.04-.58l-1.63-2.38c-.08-.11-.2-.19-.33-.2-.25-.03-.49-.11-.72-.22-.51-.27-.89-.71-1.06-1.26-.11-.36-.13-.76-.03-1.15.03-.13,0-.27-.07-.38l-2.5-3.63c-.09-.13-.24-.21-.39-.21-.03,0-.07,0-.1,0-.18.04-.34.06-.48.06-.35,0-.68-.08-.99-.24-.51-.27-.89-.72-1.06-1.27-.17-.55-.12-1.13.14-1.64l.14-.26c.08-.16.07-.34-.03-.49l-1.57-2.29c-.16-.23-.18-.54-.06-.79,5.77-11.68,6.65-19.34,5.84-20.85-.08-.15-.24-.25-.42-.25h-.03c-1.94.13-8.39,5.83-14.33,16.72-.13.25-.39.4-.68.41l-3.26.03c-.18,0-.34.1-.42.26-.29.57-.74.94-1.29,1.12-.22.07-.44.1-.65.1-.34,0-.68-.09-.99-.25-.39-.2-.71-.52-.91-.92-.08-.16-.24-.26-.42-.26,0,0-4.71.05-4.71.05-.12,0-.23.04-.32.12-.23.22-.5.37-.8.47-.21.07-.43.1-.65.1-.34,0-.68-.09-.99-.25-.13-.07-.27-.16-.42-.29-.09-.07-.2-.11-.31-.11,0,0-2.72.03-2.72.03ZM73.75,57.56c-.11,0-.22.02-.33.05-.28.09-.5.28-.64.54l-.89,1.71c-.13.27-.16.56-.07.84.08.27.28.5.54.64.16.08.33.12.5.12.11,0,.22-.02.33-.05.28-.09.51-.28.64-.54l.89-1.7c.13-.26.16-.55.08-.83-.09-.28-.28-.51-.54-.65-.16-.08-.33-.12-.5-.12ZM68.13,50.75c-.11,0-.22.02-.33.05-.28.09-.51.28-.64.54l-.89,1.7c-.28.54-.07,1.2.47,1.48.16.08.33.12.5.12.41,0,.78-.22.97-.59l.89-1.71c.13-.26.16-.56.07-.84-.09-.28-.28-.51-.54-.64-.15-.08-.33-.12-.5-.12ZM49.46,41.32c-.41,0-.78.23-.97.59l-.89,1.7c-.13.26-.16.56-.07.84.09.28.28.5.54.64.15.08.33.12.5.12.11,0,.22-.02.33-.05.28-.09.51-.28.64-.54l.89-1.7c.13-.26.16-.56.07-.84-.09-.28-.28-.5-.54-.64-.16-.08-.33-.12-.5-.12ZM40.66,40.63c-.41,0-.78.22-.97.59l-.88,1.7c-.14.26-.16.56-.07.84.09.28.28.5.54.64.16.08.33.12.5.12.11,0,.22-.02.33-.05.28-.09.51-.28.64-.54l.89-1.7c.13-.26.16-.56.07-.83s-.28-.51-.54-.64c-.16-.08-.33-.12-.5-.12Z"/>
</svg>